<svg width="512" height="480" viewBox="0 0 512 480" fill="none" xmlns="http://www.w3.org/2000/svg">
<path fill-rule="evenodd" clip-rule="evenodd" d="M24.4997 0.0996094H487.5L493.5 2.89961C497.2 4.69961 501.1 7.59961 503.8 10.5996C506.2 13.2996 509 17.8996 510.1 20.6996C512 25.8996 512 29.9996 511.7 241.3C511.5 456.2 511.5 456.5 509.4 461C508.3 463.5 505.6 467.5 503.4 469.8C501.2 472.3 496.9 475.5 487.5 479.9H24.4997L18.4997 477.1C14.7997 475.3 10.8997 472.4 8.19968 469.4C5.79968 466.7 2.99968 462.1 1.89968 459.3C-0.000319839 454.1 -0.000319883 450 0.29968 238.8C0.49968 23.7996 0.49968 23.4996 2.59968 18.9996C3.69968 16.4996 6.39968 12.4996 8.59968 10.1996C10.6997 7.69961 15.1997 4.49961 18.4997 2.89961L24.4997 0.0996094ZM23.9997 17.2996C20.9997 18.7996 18.7997 20.8996 17.2997 23.5996C15.0997 27.4996 14.9997 28.3996 14.9997 58.2996V89.0996L60.1997 89.5996C63.1997 93.4996 64.0997 95.7996 63.9997 97.2996C63.9997 98.7996 63.0997 101 61.9997 102.1C60.0997 104 58.6997 104.1 37.4997 104.1H14.9997V452.6C18.7997 459.2 20.9997 461.3 23.9997 462.8L28.4997 465.1H483.5C491.3 461.2 493.1 459.4 494.8 456.1L497 451.6V104.1H80.9997C77.7997 99.7996 76.8997 97.7996 76.9997 96.7996C76.9997 95.8996 78.0997 93.7996 79.3997 92.2996L81.7997 89.5996L497 89.0996C497 28.3996 496.9 27.4996 494.7 23.5996C493.2 20.8996 491 18.7996 488 17.2996L483.5 15.0996H28.4997L23.9997 17.2996ZM66.9997 27.0996C68.8997 26.9996 72.4997 27.6996 74.9997 28.4996C77.4997 29.2996 81.2997 31.4996 83.3997 33.2996C85.5997 35.0996 88.3997 38.7996 89.6997 41.4996C91.0997 44.5996 91.9997 48.3996 91.9997 51.4996C91.9997 54.2996 91.5997 58.0996 90.9997 59.9996C90.4997 61.8996 88.1997 65.6996 85.7997 68.3996C83.3997 71.0996 79.6997 74.1996 77.4997 75.1996C75.0997 76.2996 71.0997 76.9996 67.4997 76.9996C63.5997 76.9996 59.8997 76.2996 56.9997 74.8996C54.4997 73.7996 51.1997 71.6996 49.6997 70.1996C48.0997 68.6996 45.8997 65.6996 44.7997 63.4996C43.6997 61.2996 42.4997 57.2996 42.1997 54.4996C41.9997 51.7996 42.2997 47.6996 42.9997 45.4996C43.6997 43.2996 45.3997 39.7996 46.8997 37.6996C48.2997 35.5996 51.1997 32.7996 53.1997 31.3996C55.2997 30.0996 58.4997 28.5996 60.1997 28.0996C61.9997 27.5996 65.0997 27.1996 66.9997 27.0996ZM57.0997 51.3996C56.9997 52.8996 57.6997 55.3996 58.4997 56.9996C59.2997 58.6996 60.8997 60.4996 61.9997 60.9996C63.0997 61.5996 65.5997 61.9996 67.5997 61.9996C70.1997 61.9996 71.8997 61.2996 74.0997 58.9996C76.2997 56.7996 76.9997 55.0996 76.9997 52.2996C76.9997 50.1996 76.1997 47.5996 75.1997 46.3996C74.2997 45.1996 72.4997 43.7996 71.1997 43.0996C69.9997 42.4996 67.7997 41.9996 66.3997 41.9996C64.7997 41.9996 62.5997 43.2996 60.4997 45.3996C58.5997 47.3996 57.1997 49.8996 57.0997 51.3996ZM126 27.0996C127.9 26.9996 131.7 27.5996 134.5 28.3996C137.8 29.3996 141.1 31.3996 144.1 34.1996C147.3 37.2996 149.2 40.0996 150.5 43.9996C151.7 47.6996 152.1 51.0996 151.8 54.4996C151.5 57.2996 150.3 61.2996 149.3 63.4996C148.2 65.6996 145.5 69.0996 143.3 70.9996C141.1 72.8996 137.5 75.0996 135.4 75.7996C133.2 76.3996 129 76.9996 126 76.9996C122.3 76.9996 119.1 76.2996 116.1 74.7996C113.6 73.4996 110 70.6996 108.1 68.3996C106.1 66.1996 103.9 62.5996 103.3 60.3996C102.6 58.2996 102 54.2996 102 51.4996C102 47.9996 102.8 44.8996 104.7 41.0996C106.3 38.0996 109.1 34.3996 111 32.7996C112.9 31.2996 116.3 29.3996 118.5 28.5996C120.7 27.7996 124.1 27.0996 126 27.0996ZM118.8 46.3996C117.8 47.5996 117 50.1996 117 52.2996C117 55.0996 117.7 56.6996 120 58.9996C122.3 61.3996 123.9 61.9996 127 61.9996C129.7 61.9996 131.8 61.2996 133.6 59.7996C135.2 58.3996 136.4 55.9996 136.8 53.3996C137.4 49.4996 137.2 48.9996 133.7 45.5996C131.233 43.1996 129.066 42.0329 127.2 42.0996C125.7 42.0996 123.6 42.5996 122.5 43.1996C121.4 43.7996 119.7 45.1996 118.8 46.3996ZM188 27.3996C191 27.5996 195.3 28.6996 197.5 29.7996C199.7 30.8996 202.9 33.2996 204.6 35.1996C206.4 36.9996 208.5 39.9996 209.4 41.7996C210.3 43.5996 211.3 46.8996 211.6 49.2996C212 51.9996 211.7 55.5996 210.7 58.9996C209.8 61.9996 207.6 66.2996 205.8 68.4996C204 70.5996 200.2 73.3996 197.5 74.6996C194 76.2996 190.7 76.9996 186.5 76.9996C182.9 76.9996 178.9 76.2996 176.5 75.1996C174.3 74.1996 171 71.7996 169.1 69.8996C167.2 68.0996 164.8 64.6996 163.9 62.4996C162.7 60.0996 162 56.0996 162 52.2996C162 48.7996 162.6 44.5996 163.3 42.7996C164.1 40.9996 166.2 37.7996 168.1 35.5996C170 33.4996 172.8 31.0996 174.3 30.1996C175.8 29.3996 178.3 28.2996 179.8 27.8996C181.3 27.3996 185 27.1996 188 27.3996ZM178 46.9996C177.4 48.0996 177 50.7996 177 52.9996C177 56.1996 177.6 57.4996 180 59.4996C182 61.1996 184.2 61.9996 186.7 61.9996C188.8 61.9996 191.5 61.1996 192.6 60.2996C193.8 59.2996 195.3 57.3996 196 55.9996C196.7 54.5996 197 52.1996 196.6 50.4996C196.3 48.8996 195 46.4996 193.8 45.2996C192.5 43.9996 189.9 42.7996 188 42.4996C185.9 42.1996 183.4 42.5996 181.7 43.4996C180.2 44.2996 178.5 45.8996 178 46.9996ZM266.1 44.9996H456L458 47.7996C459.1 49.2996 460 51.0996 460 51.7996C460 52.4996 459.4 54.0996 458.7 55.4996C458.1 56.8996 456.5 58.4996 455.2 58.9996C453.8 59.6996 420.5 59.9996 361 59.9996C301.5 59.9996 268.2 59.6996 266.7 58.9996C265.5 58.4996 263.9 56.8996 263.2 55.4996C262.6 54.0996 261.9 52.3996 261.9 51.6996C261.8 50.8996 262.8 49.0996 264 47.6996L266.1 44.9996ZM259.4 128.5C274.6 128.7 281.6 129.3 288.4 130.7C293.4 131.8 301.3 133.9 305.9 135.4C310.6 136.9 319.6 140.6 325.9 143.6C332.3 146.6 341 151.5 345.4 154.4C349.8 157.4 357.2 163.1 361.9 167.1C366.5 171.2 373.9 178.7 378.2 184C382.6 189.2 388.8 197.8 397.9 213L417.7 213.2C435.6 213.4 437.8 213.7 441.4 215.6C443.6 216.7 446.9 219.3 448.7 221.3C450.5 223.3 452.7 226.4 453.7 228.2C455.2 231 455.5 234.9 455.7 256.5C456 280.5 456 281.5 454 283.7C452.6 285.2 450.8 286 448.4 286C445.8 286 444.4 285.3 442.9 283.2C441 280.6 440.9 279 440.9 258.7C440.9 241.3 440.6 236.4 439.4 234C438.6 232.3 436.6 230.3 434.9 229.5C432.3 228.1 410.4 228 255.9 228C101.5 228 79.5997 228.1 76.8997 229.5C75.2997 230.3 73.2997 232.3 72.3997 234C71.1997 236.5 70.8997 244.7 70.8997 340L77.7997 347.5H434.1L440.9 340V323C440.9 311.4 441.3 305.2 442.2 303.4C442.9 302 444.6 300.5 445.9 300C447.5 299.5 449.5 299.6 451.4 300.4C453.1 301.1 454.8 302.4 455.2 303.3C455.6 304.2 455.9 313.2 456 341.5L452.7 347.9C450.5 352.233 448.066 355.333 445.4 357.2C443.2 358.8 439.2 360.7 436.4 361.5C432.9 362.5 426.4 363 397.4 363L394 369.2C392.1 372.7 387.3 379.7 383.4 385C379.4 390.2 371.7 398.7 366.3 404C360.8 409.2 352.3 416.2 347.4 419.6C342.5 423 333.9 428 328.4 430.8C322.9 433.5 314.4 437.2 309.4 438.9C304.5 440.6 295 443.2 288.4 444.5C281.8 445.8 270.6 447.2 263.4 447.5C255.7 447.9 246.4 447.7 240.4 447C234.9 446.4 227.1 445.2 222.9 444.3C218.8 443.5 211.2 441.4 205.9 439.8C200.7 438.2 190.6 433.9 183.4 430.4C175.9 426.7 166.5 421.1 160.9 416.9C155.7 413 147.9 406.4 143.6 402.1C139.3 397.9 132.5 390.2 128.5 385C124.6 379.7 119.8 372.7 114.4 363H97.3997C85.4997 363 78.8997 362.5 75.3997 361.5C72.6997 360.7 68.4997 358.7 66.1997 357C63.1997 354.9 60.9997 352.1 55.8997 341.5L56.1997 286.5C56.3997 235 56.4997 231.2 58.2997 228C59.2997 226 61.5997 223 63.2997 221.1C64.9997 219.3 68.1997 216.8 70.3997 215.6C74.0997 213.6 76.0997 213.4 113.9 213L119.1 204.2C122 199.4 128 191 132.4 185.5C136.8 180 144.5 172 149.4 167.7C154.4 163.4 162 157.5 166.4 154.5C170.8 151.6 178.5 147.1 183.4 144.7C188.4 142.2 197.2 138.5 202.9 136.5C208.7 134.5 217.7 132 222.9 131C228.2 129.9 234 128.9 235.9 128.6C237.9 128.4 248.4 128.3 259.4 128.5ZM243.4 147.5C241.3 149.1 237.8 152.7 235.6 155.5C233.5 158.2 230.2 163.2 228.4 166.5C226.6 169.8 223.5 176.5 221.6 181.5C219.6 186.4 216.6 195.5 215 201.7L211.9 213H299.9C295.2 195.5 292 186 289.8 180.5C287.6 175 284 167.5 281.9 164C279.8 160.4 276.2 155.3 273.8 152.6C271.4 149.9 267.6 146.7 265.4 145.4C263.2 144.1 259.9 142.9 257.9 142.5C256 142.2 252.8 142.5 250.9 143.2C249 143.9 245.6 145.8 243.4 147.5ZM292.3 152.2C294.1 155.1 297.3 160.7 299.3 164.7C301.3 168.7 304.7 177 306.8 183.2C308.9 189.4 311.6 198.6 312.8 203.7L314.9 213C365.3 213 379.9 212.7 379.9 212.5C379.9 212.2 377.8 208.7 375.2 204.7C372.6 200.8 365.9 192.8 360.3 187C354.7 181.2 346.2 173.6 341.3 170.1C336.4 166.7 329.3 162.1 325.4 159.9C321.6 157.8 315.1 154.7 310.9 153.1C306.8 151.4 300.1 149.2 296.1 148.1C292.1 147 288.8 146.3 288.8 146.5C288.9 146.8 290.4 149.3 292.3 152.2ZM193.4 156.3C189 158.4 180.9 163 175.4 166.7C168.6 171.2 161.6 177.1 153.4 185.4C146.8 192 139.3 200.7 136.7 204.7C134.1 208.7 131.9 212.2 131.9 212.5C131.9 212.7 146.6 213 164.4 213H196.9C200.3 198.6 203 189.4 205.1 183.2C207.2 177 210.6 168.7 212.6 164.7C214.6 160.7 217.7 155.1 219.6 152.2C222.8 147.1 222.9 147 220.7 147C219.4 147 214.6 148.3 209.9 149.8C205.3 151.4 197.8 154.3 193.4 156.3ZM133 365.2C133.6 366.4 136.5 370.6 139.4 374.5C142.2 378.3 147.2 384.3 150.5 387.9C153.8 391.4 159.6 396.8 163.4 400C167.3 403.1 173.4 407.6 176.9 409.9C180.5 412.2 187.5 416.1 192.4 418.5C197.4 420.9 205.7 424.3 210.9 426C216.2 427.6 221 428.9 221.6 428.7C222.4 428.6 221.1 425.7 218.4 421.5C215.9 417.6 211.9 409.7 209.5 404C207 398.2 203.5 387.8 201.5 381C199.6 374.1 197.8 367.2 197.5 365.7L196.9 363H131.8L133 365.2ZM214.5 371.7C215.7 376.5 218.2 384.5 220 389.4C221.7 394.4 225.1 402.2 227.6 406.9C230.1 411.6 234 417.8 236.3 420.8C238.6 423.7 242.5 427.4 244.9 429C247.4 430.6 250.8 432.2 252.4 432.5C254.1 432.9 257 432.9 258.9 432.5C260.9 432.2 264.3 430.7 266.7 429.2C269 427.7 272.8 424.1 275.2 421.2C277.5 418.4 281.5 412.1 284.1 407.2C286.7 402.4 290.1 394.6 291.7 389.9C293.4 385.2 295.9 377.2 297.3 372.2L299.9 362.9H212.1L214.5 371.7ZM314.5 365.7C314.1 367.2 312.3 374.1 310.4 381C308.5 387.8 304.9 398.2 302.5 404C300 409.7 296 417.6 293.6 421.5C291.1 425.3 289.4 428.6 289.8 428.8C290.2 428.9 293.9 428.1 298 426.9C302.1 425.7 309.1 423.2 313.5 421.3C317.9 419.4 325.6 415.5 330.5 412.5C335.5 409.5 343.1 404.2 347.5 400.7C351.9 397.1 358.2 391.4 361.4 387.8C364.7 384.3 369.7 378.3 372.6 374.5C375.4 370.6 378.3 366.4 378.9 365.2L380 363H315L314.5 365.7ZM99.7997 258C100.5 257.9 102.2 258.5 103.6 259.2C105.5 260.1 108.2 264.8 114.1 277.2C118.5 286.4 122.3 293.9 122.6 293.9C122.9 293.9 126.8 286.2 131.3 276.9C137.7 263.9 140.2 259.6 142.1 258.8C143.5 258.2 145.7 258.1 147.1 258.5C149.1 259.1 151.1 262.5 157.8 276.6C162.4 286.1 166.3 293.9 166.6 293.9C166.9 293.9 170.8 286.2 175.3 276.9C181.7 263.9 184.2 259.6 186.1 258.8C187.5 258.2 189.6 258 190.8 258.3C192.1 258.6 193.8 260.4 196.3 265.4L184.9 288.8C178.7 301.7 172.8 313.3 171.8 314.6C170.7 316.2 169.1 316.9 166.8 316.9C165 317 162.9 316.2 161.9 315.2C161 314.2 156.8 306.3 152.7 297.7C148.5 289 144.9 281.9 144.6 281.9C144.3 281.9 140.7 289 136.5 297.7C132.4 306.3 128.2 314.2 127.3 315.2C126.3 316.2 124.2 317 122.3 316.9C120.1 316.9 118.5 316.2 117.3 314.6C116.4 313.3 110.5 301.7 92.8997 265.4L94.4997 262.2C95.3997 260.5 96.6997 258.9 97.3997 258.6C97.9997 258.3 99.1997 258 99.7997 258ZM212 257.9C212.9 257.9 214.5 258.5 215.6 259.3C216.7 260 221.2 268.1 225.6 277.3C230 286.4 233.8 293.9 234.1 293.9C234.4 293.9 238.3 286.2 242.8 276.9C249.4 263.5 251.7 259.7 253.8 258.7C255.8 257.9 257 257.9 258.8 258.7C260.4 259.6 263.6 265 269.3 276.9C273.9 286.2 277.8 293.9 278.1 293.9C278.4 293.9 282.3 286.3 286.8 276.9C293.1 264 295.7 259.6 297.7 258.7C299.8 257.6 300.7 257.7 302.9 258.9C304.4 259.8 306 261.7 306.6 263.2C307.5 265.5 306.2 268.7 295.5 290.6C286 310.3 283 315.6 281 316.3C279.7 316.8 277.4 316.9 275.8 316.5C273.4 316 272.1 313.8 264.8 298.9C260.3 289.5 256.4 281.9 256.1 281.9C255.8 281.9 251.9 289.5 247.3 298.9C240.1 313.8 238.8 316 236.3 316.5C234.8 316.9 232.6 316.9 231.3 316.5C229.6 316 226.5 310.6 217.1 291.4C210.5 277.9 205.1 265.8 205 264.5C204.9 262.9 205.9 261.3 207.7 260C209.2 258.8 211.1 257.9 212 257.9ZM322.7 257.9C323.5 257.9 325.2 258.5 326.6 259.2C328.5 260.1 331.2 264.8 337.1 277.2C341.5 286.4 345.3 293.9 345.6 293.9C345.9 293.9 349.8 286.1 354.3 276.6C360.8 263 363.1 259.2 364.9 258.7C366.2 258.3 368.5 258.3 369.9 258.6C372.2 259.2 373.8 261.8 380.8 276.6C385.4 286.1 389.3 293.9 389.6 293.9C389.9 293.9 393.8 286.2 398.3 276.9C405.5 262.2 407 259.7 409.6 258.7C411.6 257.966 413.266 257.933 414.6 258.6C415.7 259.1 417.2 261 417.8 262.7C419 265.8 418.6 266.9 407.5 289.7C401.2 302.7 395.2 314.2 394.3 315.2C393.4 316.2 391.2 317 389.6 317C387.9 317 385.8 316.2 384.9 315.2C384 314.2 379.8 306.3 375.7 297.7C371.5 289 367.9 281.9 367.6 281.9C367.3 281.9 363.7 289 359.5 297.7C355.4 306.3 351.2 314.2 350.3 315.2C349.4 316.2 347.2 317 345.6 317C343.9 317 341.8 316.2 340.9 315.2C340 314.2 334 302.6 327.7 289.4C319.9 273.3 316.3 264.8 316.7 263.4C317 262.3 318.2 260.6 319.3 259.7C320.4 258.7 322 257.9 322.7 257.9Z" fill="white"/>
</svg>
