<svg width="288" height="512" viewBox="0 0 288 512" fill="none" xmlns="http://www.w3.org/2000/svg">
<path fill-rule="evenodd" clip-rule="evenodd" d="M38.5 0.0996155H143C246.1 -0.000384487 247.6 -0.00038445 253.5 1.99962C256.8 3.19962 261.7 5.29962 264.4 6.79962C267 8.29962 271.6 11.9996 274.5 14.9996C277.3 17.9996 280.8 22.7996 282.2 25.4996C283.6 28.2996 285.5 32.9996 286.4 35.9996C287.9 40.9996 288 60.7996 288 252C288 436.6 287.8 463.2 286.5 468.5C285.7 471.8 283.3 477.8 281.2 481.9C278.9 486.6 275.3 491.6 271.4 495.4C268.1 498.8 263.1 502.7 260.4 504.2C257.7 505.7 252.1 508.1 240.5 512H47.5L40 509.5C35.9 508.1 30.2 505.6 27.5 504.1C24.7 502.5 19.7 498.4 16.2 494.9C12.1 490.8 8.6 486 6.4 481.5C4.5 477.6 2.3 472 1.5 469C0.2 464.3 0 434.4 0 253C0 68.7996 0.2 41.7996 1.5 36.6996C2.3 33.5996 4.2 28.5996 5.7 25.7996C7.1 22.8996 10.6 18.0996 13.4 15.1996C16.2 12.1996 20.1 8.89962 22 7.69962C23.9 6.49962 28.4 4.29962 32 2.79962L38.5 0.0996155ZM33.5 19.5996C31.3 20.5996 27.7 23.2996 25.5 25.4996C23.3 27.6996 20.5 31.4996 19.3 33.9996C18.2 36.4996 16.9 40.5996 16.6 43.2996L16 47.9996H272C271.1 40.5996 269.4 35.8996 267.7 32.5996C265.9 29.3996 263.1 25.5996 261.5 24.1996C259.9 22.8996 256.3 20.5996 253.5 19.0996L248.5 16.4996C89.6 16.2996 42.2 16.4996 40.5 16.8996C38.8 17.2996 35.7 18.4996 33.5 19.5996ZM16 400H272V63.9996H16V400ZM16.3 425.3C16.8 433.1 17.4 435.5 20.3 441.5C22.5 446 25.6 450.1 28.6 452.9C31.3 455.3 36.4 458.7 40 460.4L46.5 463.5C103.8 464 124.3 464 129 463.8L137.5 463.5C131.4 460.4 128 457.7 126.1 455.4C124.1 453.2 121.9 449.6 121.3 447.4C120.6 445.3 120 441.9 120 440C120 438.1 120.6 434.7 121.3 432.6C121.9 430.4 124.1 426.8 126.1 424.6C128 422.3 131.3 419.7 133.3 418.8C135.3 417.8 137 416.8 137 416.5C137 416.2 109.7 416 76.4 416H15.7L16.3 425.3ZM154.3 418.4C156.1 419.1 159.3 421.7 161.5 424.2C163.7 426.7 166.1 430.5 166.8 432.6C167.4 434.8 168 438.1 168 440.1C168 442 167.4 445.3 166.8 447.5C166.1 449.6 163.9 453.2 161.9 455.5C160 457.7 156.6 460.5 154.4 461.6L150.5 463.6C163.7 464 184.2 464 204.6 463.9L241.6 463.6C253.9 457.5 258.1 454.5 261 451.4C263.4 448.7 266.8 443.6 268.4 440.1C270.7 435.1 271.5 431.5 271.9 424.8L272.5 416C178.4 416.1 151 416.3 151 416.6C151 416.8 152.5 417.7 154.3 418.4ZM136.1 440C136 442 136.9 443.9 138.5 445.6C140.1 447.1 142.2 448.1 144.1 448.1C146 448.1 148 447.1 149.6 445.6C151.1 444 152 441.9 152 440.1C152 438.2 151.1 436.1 149.5 434.6C148 433 145.9 432.1 144 432.1C142.1 432.1 140 433 138.5 434.5C137.1 436 136.1 438.2 136.1 440ZM20.4 473.8C22.5 477.8 25.8 482.4 28.7 485C31.4 487.5 36.5 490.8 40 492.5L46.5 495.6H241.5C251.6 490.8 256.7 487.5 259.4 485C262.2 482.4 265.6 477.8 267.6 473.8C269.5 470.1 270.8 466.6 270.5 466.1C270.3 465.5 268.5 466.4 266.5 468.1C264.6 469.7 260.9 472.1 258.3 473.4C255.7 474.7 251.1 476.6 248 477.7C242.8 479.5 238 479.6 144 479.6C50.1 479.6 45.3 479.5 40 477.7C37 476.6 33 475 31 474C29.1 473.1 25.4 470.7 22.8 468.7C20.2 466.7 17.8 465.6 17.5 466.1C17.3 466.6 18.6 470.1 20.4 473.8ZM120.2 24.0996C121.9 24.0996 124 25.0996 125.5 26.5996C127.1 28.0996 128 30.1996 128 32.0996C128 33.8996 127.1 35.9996 125.6 37.5996C124.2 38.8996 122.2 40.0996 121.1 40.0996C119.9 40.0996 117.9 39.4996 116.5 38.7996C115.1 38.0996 113.5 36.3996 112.9 35.0996C112.3 33.6996 112.1 31.4996 112.4 30.2996C112.8 29.0996 114 27.1996 115.2 26.0996C116.4 24.9996 118.7 24.0996 120.2 24.0996ZM156 24.0996C170.7 24.0996 171.1 24.0996 173.5 26.5996C175.1 28.0996 176 30.1996 176 32.0996C176 33.8996 175.1 35.9996 173.6 37.5996C171.2 39.9996 170.8 40.0996 156.1 40.0996C141.4 40.0996 141 39.9996 138.5 37.5996C136.9 35.8996 136 33.9996 136.1 31.9996C136.1 30.1996 137.1 27.9996 138.5 26.4996C140.9 24.0996 141.3 24.0996 156 24.0996ZM225.5 120.6L232 123.6C235.6 125.3 240.7 128.7 243.4 131.1C246.5 134 249.5 138.2 255.5 150.5V313.6L252.5 320.1C250.8 323.6 247.4 328.7 245 331.4C242.1 334.5 237.9 337.5 225.6 343.6H62.4L55 339.9C50.2 337.5 46 334.5 43.1 331.4C40.6 328.7 37.3 323.6 32.5 313.6V150.6L35.6 144.1C37.3 140.5 40.5 135.5 42.7 133.1C44.9 130.6 49.4 127.1 52.6 125.4C55.9 123.6 60.3 121.7 62.5 121.2C65 120.6 97.6 120.3 225.5 120.6ZM55.5 143.5C52.4 146.6 50 150.1 49.3 152.6C48.4 155.5 48.1 176.2 48.1 232.1C48.1 287.9 48.4 308.6 49.3 311.6C50 314 52.4 317.5 55.5 320.6C58.6 323.7 62.1 326.1 64.5 326.8C67.5 327.7 88.2 328 144 328C199.8 328 220.6 327.7 223.5 326.8C226 326.1 229.5 323.7 232.6 320.6C235.6 317.5 238.1 314 238.8 311.6C239.7 308.6 240 287.9 240 232.1C240 176.2 239.7 155.5 238.8 152.6C238.1 150.1 235.6 146.6 232.6 143.5C229.5 140.4 226 138 223.5 137.3C220.6 136.4 199.9 136.1 143.5 136.2C91.1 136.2 66.4 136.6 64 137.4C62.1 138 58.3 140.7 55.5 143.5ZM143 144.1C147.2 144.1 154.5 144.7 159.3 145.5C164.1 146.4 171.5 148.4 175.8 150C180 151.6 187.1 155.3 191.5 158.1C195.9 161 202.7 166.5 206.6 170.4C210.4 174.4 215.7 180.9 218.2 185.1C220.8 189.2 224.3 195.9 225.9 200.1C227.6 204.2 229.7 211.8 230.6 217.1C231.8 223.8 232.1 229.4 231.7 236.6C231.4 242.1 230.2 249.9 229.1 254.1C228 258.2 225.9 264.3 224.5 267.6C223 270.9 219.8 276.7 217.3 280.6C214.8 284.4 209.6 290.7 205.6 294.6C201.7 298.4 194.9 303.8 190.5 306.6C186.1 309.3 179.3 312.8 175.3 314.3C171.3 315.8 163.9 317.8 158.8 318.7C152.3 319.8 146.6 320.1 139.5 319.7C134 319.4 126.2 318.2 122 317.2C117.9 316.1 111.8 314 108.5 312.5C105.2 311 99.4 307.8 95.5 305.3C91.7 302.8 85.4 297.6 81.5 293.7C77.6 289.8 72.4 283.2 69.8 279.1C67.3 274.9 63.8 268.2 62.1 264.1C60.5 259.9 58.4 252.5 57.6 247.6C56.7 242.6 56 235.6 56 232.1C56 228.5 56.7 221.6 57.5 216.8C58.3 212 60.3 204.8 61.8 200.8C63.3 196.8 66.8 190 69.5 185.6C72.2 181.2 77.8 174.2 82 170C86.1 165.9 92.9 160.4 97 157.8C101.2 155.3 107.9 151.8 112 150.2C116.2 148.5 123.1 146.5 127.5 145.7C131.9 144.9 138.9 144.2 143 144.1ZM120.5 164.1C117.2 165.2 111.6 167.8 108 169.8C104.3 171.9 98.1 176.8 93.4 181.5C88.4 186.5 83.9 192.2 81.5 196.6C79.4 200.4 76.5 206.9 75.1 211.1C73 217.5 72.7 220.4 72.7 232.1C72.7 244 73 246.5 75.3 253.6C76.8 258 79.7 264.5 81.7 268.1C83.8 271.6 89.1 278.2 93.5 282.6C97.9 287 104.5 292.3 108 294.3C111.6 296.4 118.1 299.3 122.5 300.8C129.6 303.1 132.1 303.4 144 303.4C155.9 303.4 158.5 303.1 165.5 300.8C169.9 299.3 176.5 296.4 180 294.3C183.6 292.3 190.1 287 194.5 282.6C198.9 278.2 204.2 271.6 206.3 268.1C208.4 264.5 211.3 258 212.7 253.6C215.1 246.5 215.4 244 215.4 232.1C215.4 220.1 215.1 217.6 212.7 210.6C211.3 206.2 208.4 199.6 206.3 196.1C204.2 192.5 198.9 186 194.5 181.6C190.1 177.2 183.6 171.9 180 169.8C176.5 167.7 169.9 164.9 165.5 163.5C159.7 161.6 154.7 160.8 147 160.5C141.3 160.3 134.3 160.6 131.5 161.1C128.8 161.6 123.8 162.9 120.5 164.1ZM152.2 200.1C153.9 200.1 156 201 157.5 202.6C158.9 203.9 160 206.1 160 207.3C160 208.5 156.2 221 151.5 235.1C145.3 253.8 142.4 261 140.8 262.3C139.5 263.3 137.3 264.1 135.8 264.1C134.2 264.1 131.9 263 130.5 261.6C129.2 260.2 128 258 128 256.8C128 255.6 131.8 243.1 136.5 229.1C142.4 211.3 145.7 203 147.1 201.8C148.3 200.8 150.6 200.1 152.2 200.1ZM111.8 208.1C113.9 208.1 115.9 208.9 117.5 210.6C119.1 212.1 120 214.2 120 216.1C120 218.4 118.6 220.5 107.5 232.1L113.8 238.6C118.6 243.6 120 245.7 120 248.1C120 249.9 119.1 252 117.6 253.6C115.9 255.2 114 256 111.8 256C109 256 107.1 254.6 98.3 245.8C89 236.5 88.1 235.2 88.2 232.1C88.4 229.2 90 227.1 98.5 218.4C107.2 209.5 109.1 208.1 111.8 208.1ZM176.2 208.1C179.1 208.1 181 209.5 189.8 218.3C198.8 227.4 200 228.9 200 232.1C200 235.2 198.8 236.7 189.7 245.8C181 254.5 178.9 256.1 176.2 256.1C174.1 256.1 172.2 255.2 170.5 253.6C169 252 168 249.9 168 248.1C168 245.7 169.4 243.6 180.5 232.1L174.3 225.6C169.3 220.4 168 218.4 168.1 216C168.1 214.2 169.1 212 170.5 210.5C172.1 208.9 174 208.1 176.2 208.1Z" fill="white"/>
</svg>
