<svg width="496" height="496" viewBox="0 0 496 496" fill="none" xmlns="http://www.w3.org/2000/svg">
<path fill-rule="evenodd" clip-rule="evenodd" d="M375 0.100115C385.3 0.000115374 390.8 0.500115 398 2.10012C403.2 3.20012 410.8 5.20012 414.8 6.60012C418.7 7.90012 425.3 10.6001 429.2 12.6001C433.2 14.6001 439.9 18.5001 444 21.3001C448.1 24.1001 455.6 30.4001 460.6 35.4001C465.6 40.4001 471.9 47.9001 474.7 52.0001C477.5 56.1001 481.4 62.9001 483.5 67.0001C485.6 71.1001 488.5 78.3001 490 83.0001C491.5 87.7001 493.4 94.7001 494.1 98.5001C495 102.7 495.5 111.6 495.4 121C495.4 134.2 495 138 492.8 147C491.4 152.8 488.4 161.6 486.3 166.5C484.2 171.4 480.4 178.9 477.8 183C475.2 187.1 470.3 193.8 466.8 197.9C463.3 202 457.4 208 453.5 211.3C449.6 214.5 443.1 219.2 439 221.8C434.9 224.4 428.1 227.9 416.5 232.9L416 355.7C415.5 469.4 415.4 478.8 413.8 482C412.8 483.9 410.6 486.9 408.8 488.7C407 490.4 403.8 492.8 398 496H18L13.9 493.8C11.6 492.5 8.1 489.7 6.1 487.4C4.1 485.2 1.9 481.6 1.3 479.4C0.3 476.4 0 442.2 0 328C0 216.2 0.3 179.5 1.2 176.5C2 174.1 4.4 170.5 7.5 167.5C10.5 164.4 14.1 162 16.5 161.2C19.5 160.3 50.4 160 141.8 160C238.3 160 262.9 159.7 262.6 158.8C262.4 158.1 261.4 154.5 258.5 144H228.5L212.5 128L158.5 127.9L157 131.1C156.2 132.9 153.7 136 151.4 137.9C149.2 139.9 145.6 142.1 143.4 142.7C141.3 143.4 137.9 144 136 144C134.1 144 130.7 143.4 128.5 142.8C126.1 142 122.5 139.6 119.5 136.5C116.4 133.5 114 129.9 113.2 127.5C112.6 125.3 112 121.9 112 120C112 118.1 112.6 114.7 113.2 112.5C114 110.1 116.4 106.5 119.5 103.5C122.5 100.4 126.1 98.0001 128.5 97.2001C130.7 96.6001 134.1 96.0001 136 96.0001C137.9 96.0001 141.3 96.6001 143.4 97.3001C145.6 97.9001 149.2 100.1 151.4 102.1C153.7 104 156.2 107.1 158.5 112.1L219.5 112L235.5 128H256V119.8C256 115.2 256.7 107.5 257.5 102.5C258.3 97.6001 259.8 90.5001 262.5 80.1001L196.5 80.0001L180.5 64.0001L126.5 63.9001L125 67.1001C124.2 68.9001 121.7 72.0001 119.4 73.9001C117.2 75.9001 113.6 78.1001 111.4 78.7001C109.3 79.4001 105.9 80.0001 104 80.0001C102.1 80.0001 98.7 79.4001 96.5 78.8001C94.1 78.0001 90.5 75.6001 87.5 72.5001C84.4 69.5001 82 65.9001 81.2 63.5001C80.6 61.3001 80 57.9001 80 56.0001C80 54.1001 80.6 50.7001 81.2 48.5001C82 46.1001 84.4 42.5001 87.5 39.5001C90.5 36.4001 94.1 34.0001 96.5 33.2001C98.7 32.6001 102.1 32.0001 104 32.0001C105.9 32.0001 109.3 32.6001 111.4 33.3001C113.6 33.9001 117.2 36.1001 119.4 38.1001C121.7 40.0001 124.2 43.1001 126.5 48.1001L187.5 48.0001L203.5 64.0001H269.5L275.6 54.8001C279 49.7001 284.8 42.2001 288.6 38.1001C292.4 34.0001 299.3 27.9001 304 24.3001C308.7 20.8001 315.9 16.2001 320 14.1001C324.1 11.9001 330.6 8.90011 334.5 7.50011C338.4 6.00011 346 3.80011 351.5 2.50011C359 0.800115 364.8 0.200115 375 0.100115ZM363.7 21.9001C362.1 23.3001 359.5 26.3001 358 28.5001C356.5 30.7001 353.6 35.8001 351.6 39.8001C349.6 43.7001 348 47.2001 348 47.5001C348 47.8001 360.6 48.0001 376 48.0001C391.4 48.0001 404 47.8001 404 47.5001C404 47.2001 402 43.1001 399.6 38.3001C397.1 33.4001 393.2 27.3001 390.8 24.6001C388.4 21.9001 384.8 18.9001 382.8 17.9001C380.7 16.8001 377.5 16.0001 375.8 16.0001C374 16.1001 371.1 16.8001 369.5 17.7001C367.9 18.5001 365.2 20.4001 363.7 21.9001ZM316.5 35.0001C312.6 37.7001 307.7 41.7001 305.5 44.0001L301.5 48.0001H331C333.4 40.6001 336 34.8001 338.3 30.3001C340.6 25.8001 342.1 22.1001 341.5 22.0001C340.9 22.0001 336.7 23.8001 332 26.1001C327.3 28.3001 320.4 32.4001 316.5 35.0001ZM419.5 43.3001L421 48.0001H450.5C444.3 41.7001 439.4 37.7001 435.5 35.0001C431.6 32.4001 424.7 28.3001 420 26.1001C415.3 23.8001 411 22.0001 410.5 22.0001C409.9 22.0001 411.4 25.7001 413.7 30.3001C416 34.8001 418.6 40.6001 419.5 43.3001ZM96 56.0001C96 57.9001 96.9 59.9001 98.5 61.5001C100.1 63.1001 102.1 64.0001 104 64.0001C106 64.0001 108 63.1001 109.5 61.5001C111.1 60.0001 112 57.8001 112 56.0001C112 54.1001 111.1 52.1001 109.5 50.5001C107.9 48.9001 105.9 48.0001 104 48.0001C102 48.0001 100 48.9001 98.5 50.5001C97.1 51.9001 96.1 54.1001 96 56.0001ZM283.1 74.3001C280.3 79.9001 277.2 87.9001 276.1 92.0001C274.9 96.1001 273.7 102.3 273.3 105.7L272.5 112C318.2 112 320 111.9 320 110.3C320 109.3 320.5 103.3 321.1 97.0001C321.6 90.7001 322.8 81.7001 323.6 77.0001C324.4 72.3001 325.2 67.5001 325.5 66.3001L326 64.0001H288L283.1 74.3001ZM340.7 73.1001C339.9 77.2001 338.7 84.2001 338.2 88.6001C337.7 93.0001 336.9 100 336.6 104.3L336.1 112.1H416.1C415.2 99.3001 414.3 91.1001 413.5 85.6001C412.7 80.1001 411.5 73.1001 410.8 70.1001L409.5 64.6001C358.1 64.1001 343 64.4001 342.7 64.8001C342.5 65.2001 341.6 68.9001 340.7 73.1001ZM426.4 66.3001C426.7 67.5001 427.7 72.6001 428.5 77.6001C429.4 82.5001 430.5 91.7001 431.1 98.1001C431.6 104.4 432.1 110.1 432.1 110.8C432.1 111.8 437.5 112 455.8 112H479.6C478.4 102.4 477.1 96.2001 476 92.1001C474.9 87.9001 471.8 79.9001 469 74.3001L464.1 64.1001H425.8L426.4 66.3001ZM128.1 120C128.1 121.9 129 123.9 130.6 125.5C132.1 127.1 134.2 128 136.1 128C138 128 140.1 127.1 141.6 125.5C143.1 124 144.1 121.8 144.1 120C144.1 118.1 143.1 116.1 141.6 114.5C140 112.9 137.9 112 136 112C134.1 112 132.1 112.9 130.6 114.5C129.1 115.9 128.1 118.1 128.1 120ZM273.3 134.3C273.8 137.7 274.6 142.3 275.1 144.5C275.7 146.7 277.2 151.1 278.4 154.3L280.6 160.1L323.1 160C322.3 154.2 321.6 147.6 321.1 141.5C320.5 135.4 320.1 129.9 320.1 129.3C320.1 128.3 314.6 128 296.3 128H272.5L273.3 134.3ZM337.1 141.6C337.6 147.1 338.2 153.5 338.5 155.8L339 160.1C386.9 160.1 396.7 160.5 399.4 161.3C401.6 162 405.1 164 407.2 165.8L411 169.1C412.6 160.9 413.4 154.7 414 150.1C414.5 145.4 415.2 138.5 415.5 134.8L416 128.1C338.6 128.1 336 128.2 336.1 129.8C336.1 130.8 336.5 136.1 337.1 141.6ZM431.6 134.8C431.3 138.5 430.5 145.8 429.9 151.1C429.3 156.3 428.2 163.6 427.5 167.3C426.7 171 426 174.5 426 175.1C426 175.7 433 176.1 445 176.1H464C471.7 160.2 474.9 152.2 476 148.1C477.1 143.9 478.4 137.7 478.8 134.3L479.5 128.1H432.2L431.6 134.8ZM18.5 178.5C16.1 180.9 16.1 181.1 16.1 202.5L16 224H124.5L139.9 208H400C400 181.4 400 180.9 397.5 178.5L395 176H21L18.5 178.5ZM416 216C425.6 211.2 431.6 207.6 435.5 205C439.3 202.3 444.1 198.3 446.2 196.1L450 192H416V216ZM131.5 240.1L16 240V475L21 480H395L400 475V224H147.4L131.5 240.1ZM352 80.1001H368V96.1001H352V80.1001ZM384 80.1001H400V96.1001H384V80.1001ZM32 192.1H48V208.1H32V192.1ZM64 192.1H80V208.1H64V192.1ZM96 192.1H112V208.1H96V192.1ZM256 240.1H384V368.1H256V240.1ZM272 352.1H368V256.1H272V352.1ZM66.5 272.7C71.9 273 74.8 273.9 79.4 276.4C82.6 278.2 86.4 281 87.8 282.6C89.1 284.3 91.4 287.9 95.5 295.6L96 384.1H80V352.1H48V384.1H32L32.5 295.6L35 290.6C36.3 287.9 39.3 283.8 41.5 281.6C43.7 279.4 47.3 276.7 49.5 275.7C51.7 274.6 54.9 273.4 56.5 273C58.2 272.6 62.7 272.4 66.5 272.7ZM51.9 293.2C50.9 294.5 49.7 296.9 49.1 298.4C48.5 300 48 308.6 48 318.6V336.1H80C79.5 299.7 79.3 298.1 77.4 295.4C76.2 293.9 74.2 291.8 72.9 290.8C71.6 289.8 68.3 288.8 65.5 288.5C62.7 288.3 59 288.7 57 289.4C55.1 290.1 52.8 291.8 51.9 293.2ZM112.2 272L152.5 272.6L158.9 276.1C162.4 278.1 166.4 281 167.8 282.6C169.1 284.3 171.4 287.9 172.8 290.6C175 294.8 175.4 297 175.4 304.1C175.5 312 175.2 313.1 172 319C170.1 322.5 167.2 326.5 165.5 327.9C163.9 329.3 160.3 331.5 157.5 332.9C153.1 335.2 151.1 335.5 128 336.1V384.1H112L112.2 272ZM128 320.2C148.1 319.7 150.3 319.4 152.6 317.7C154.1 316.6 156.2 314.4 157.4 312.9C159 310.8 159.5 308.6 159.5 304.2C159.5 299.9 159 297.6 157.5 295.7C156.4 294.2 154.3 292 152.7 290.8C150.3 289 148.2 288.7 139 288.4L128.2 288L128 320.2ZM184 272.2H232V288.2H216V368.2H232V384.2H184V368.2H200V288.2H184V272.2ZM256 384.2H384V400.2H256V384.2ZM73.2 416.5C100.1 416.7 102 416.9 104.6 418.7C106 419.8 108.2 422 109.4 423.6C111.3 426.1 111.5 427.7 111.5 440.2C111.5 452.5 111.3 454.4 109.5 456.8C108.4 458.3 106.2 460.4 104.7 461.6C102 463.7 100.9 463.7 72 463.7C43.7 463.7 42 463.6 39.4 461.7C38 460.6 35.8 458.5 34.6 456.9C32.8 454.5 32.5 452.4 32.2 442.9C32 436.8 32.1 430.3 32.4 428.5C32.7 426.7 34.1 423.8 35.3 422.1C36.6 420.4 39.2 418.4 41.1 417.6C43.7 416.6 51 416.3 73.2 416.5ZM48 448.2H96V432.2H48V448.2ZM169.2 416.5C196.1 416.7 198 416.9 200.6 418.7C202 419.8 204.2 422 205.4 423.6C207.3 426.1 207.5 427.7 207.5 440.2C207.5 452.5 207.3 454.4 205.5 456.8C204.4 458.3 202.2 460.4 200.7 461.6C198 463.7 196.9 463.7 168 463.7C139.7 463.7 138 463.6 135.4 461.7C134 460.6 131.8 458.5 130.6 456.9C128.8 454.5 128.5 452.4 128.2 442.9C128 436.8 128.1 430.3 128.4 428.5C128.7 426.7 130.1 423.8 131.3 422.1C132.6 420.4 135.2 418.4 137.1 417.6C139.7 416.6 147 416.3 169.2 416.5ZM144 448.2H192V432.2H144V448.2ZM256 416.2H352V432.2H256V416.2ZM368 416.2H384V432.2H368V416.2ZM256 448.2H384V464.2H256V448.2Z" fill="white"/>
</svg>
