<svg width="512" height="512" viewBox="0 0 512 512" fill="none" xmlns="http://www.w3.org/2000/svg">
<path fill-rule="evenodd" clip-rule="evenodd" d="M386.3 0.0997487C407.1 -0.000251273 411.5 0.299749 414.2 1.59975C416 2.49975 419 4.59975 420.8 6.39975C422.6 8.09975 427.6 15.4997 439.5 35.9997H466.5C483.3 35.9997 495 36.3997 497.5 37.0997C499.8 37.7997 503.2 39.8997 505.6 42.3997C508.1 44.7997 510.2 48.1997 510.9 50.4997C511.6 53.1997 511.9 66.2997 511.5 126.7L508.5 131.5C506.4 135 504.1 137.1 495.6 141.5H429C362.8 141.5 362.5 141.5 358.5 139.3C356.3 138.2 353.5 136.1 352.3 134.8C351.1 133.6 349.4 130.8 348.6 128.7C347.2 125.5 347 117.5 347 70.4997C347 18.7997 347.1 15.7997 348.9 12.1997C350 10.1997 352.1 7.29975 353.7 5.89975C355.2 4.49975 357.6 2.59975 359 1.69975C361.1 0.299749 365.1 0.0997487 386.2 0.0997487H386.3ZM362.9 26.9997L363.1 35.9997H421.1C419 32.4997 416.6 28.2997 414.4 24.4997C412.2 20.5997 409.6 17.1997 408.7 16.6997C407.8 16.2997 398 15.9997 386.8 15.9997C375.1 15.9997 365.8 16.4997 364.7 17.0997C363 17.9997 362.8 19.0997 362.9 26.9997ZM363.1 123C367.3 125.8 375.9 126 429.1 126C476.7 126 491.2 125.7 493.1 124.7L495.6 123.4C496.1 59.8997 495.9 54.7997 494.6 53.4997C493.3 52.1997 484.5 51.9997 428.1 51.9997H363.1V123ZM110.1 92.0997C118.1 92.0997 130.4 92.4997 137.6 92.9997C144.7 93.5997 154.9 94.6997 160.1 95.5997C165.3 96.4997 174.1 98.2997 179.6 99.6997C185.1 101.1 192.5 103.4 196.1 104.8C199.7 106.2 205.3 109 208.6 110.9C211.9 112.8 216.2 116 218.1 118C220 119.9 222.4 123.2 223.4 125.2C225 128.8 225.1 137.5 225.1 256.7C225.1 380.6 225 384.6 223.2 388.5C222.1 390.7 219.1 394.5 216.4 397C213.8 399.4 208 403.1 203.6 405.2C199.2 407.2 191.3 410 186.1 411.5C180.9 412.9 171.2 414.9 164.6 416C158 417.1 145.8 418.5 137.6 419.1C128.7 419.8 114.7 420 103.1 419.7C92.3996 419.3 79.2996 418.6 74.0996 418C68.8996 417.4 59.1996 415.8 52.5996 414.5C45.9996 413.2 37.6996 411.1 34.0996 409.9C30.4996 408.8 24.8996 406.5 21.5996 405C18.2996 403.4 13.4996 400.5 10.7996 398.6C8.19959 396.6 4.8996 392.9 0.599595 385.5L0.399595 258.5C0.199595 180.3 0.499595 130.2 1.0996 128C1.5996 126.1 3.6996 122.5 5.7996 120.1C7.8996 117.6 12.2996 113.9 15.5996 111.8C18.8996 109.7 24.9996 106.6 29.0996 105C33.1996 103.5 39.9996 101.2 44.0996 100.1C48.1996 98.8997 56.9996 97.0997 63.5996 95.9997C70.1996 94.8997 80.0996 93.5997 85.5996 93.0997C91.0996 92.6997 102.1 92.1997 110.1 92.0997ZM78.0996 110.1C72.8996 110.7 64.2996 112 59.0996 113C53.8996 114.1 45.9996 116.1 41.5996 117.6C37.1996 119.1 31.0996 121.5 28.0996 123C25.0996 124.5 21.0996 127.2 19.2996 128.9C17.5996 130.6 16.0996 132.8 16.0996 133.7C16.0996 134.7 17.4996 136.9 19.2996 138.7C21.0996 140.4 25.2996 143.2 28.5996 144.8C31.8996 146.4 36.5996 148.5 39.0996 149.3C41.5996 150.1 47.1996 151.7 51.5996 152.9C55.9996 154 64.7996 155.6 71.0996 156.5C77.3996 157.4 91.9996 158.3 103.6 158.7C116.3 159 130.1 158.8 138.6 158.1C146.3 157.5 156.6 156.3 161.6 155.5C166.5 154.7 174.6 152.9 179.6 151.5C184.5 150.1 192.3 147.1 196.8 144.9C201.5 142.7 206 139.8 207.1 138.2C208.3 136.7 209.2 134.5 209.1 133.2C209.1 132 207.7 129.8 205.8 128.2C204.1 126.7 199.7 124 196.1 122.3C192.5 120.5 185.5 118 180.6 116.5C175.6 115.1 166.6 113.1 160.6 112C154.5 110.9 144.2 109.6 137.6 109C131 108.5 118.8 108.1 110.6 108.2C102.3 108.3 93.7996 108.5 91.5996 108.7C89.3996 108.8 83.2996 109.5 78.0996 110.1ZM18.2996 199.4C19.5996 201 22.1996 203.3 24.0996 204.5C25.9996 205.7 30.4996 207.8 34.0996 209.2C37.6996 210.6 44.5996 212.7 49.5996 213.8C54.4996 215 63.7996 216.7 70.0996 217.7C79.3996 219.2 87.5996 219.5 113.1 219.4C140.3 219.4 146.5 219.1 158.6 217.2C166.3 216 176.6 213.9 181.6 212.5C186.5 211.1 193.3 208.6 196.6 207.1C199.9 205.6 204.1 202.9 205.8 201.2L209.1 198C209.1 167 208.9 158 208.6 158C208.3 158 206.2 159 203.8 160.1C201.5 161.3 196.4 163.4 192.6 164.7C188.7 166 181.4 167.9 176.3 169C171.3 170.1 162.6 171.7 157.1 172.5C151.6 173.3 139.3 174.5 129.8 175.1C117.3 175.9 107.9 175.9 95.0996 175.1C85.4996 174.5 71.9996 173.1 65.0996 172C58.1996 170.9 47.5996 168.7 41.5996 167.1C35.4996 165.5 27.3996 162.8 23.5996 161.1C19.6996 159.4 16.4996 158 16.2996 158C16.1996 158 16.0996 166.7 16.0996 177.2C15.9996 195.8 16.0996 196.6 18.2996 199.4ZM16.0996 259C21.0996 263.9 25.6996 266.8 29.5996 268.6C33.3996 270.3 41.2996 273 47.0996 274.4C52.8996 275.8 62.2996 277.7 68.0996 278.5C73.8996 279.4 86.1996 280.5 95.5996 280.9C104.9 281.4 120 281.4 129.1 281C138.2 280.5 151 279.4 157.6 278.5C164.2 277.5 173.9 275.7 179.1 274.4C184.3 273.1 192.3 270.2 196.8 268C201.4 265.8 206 262.8 207.1 261.2C209 258.7 209.2 257.1 209.1 238.7V219C199.4 223.5 193.4 225.7 189.6 226.9C185.7 228.1 176.7 230.2 169.6 231.5C162.4 232.8 150.1 234.4 142.1 235.1C132.9 235.8 118.7 236.1 103.1 235.7C86.2996 235.3 74.4996 234.5 65.5996 233.2C58.3996 232.1 47.8996 230 42.0996 228.5C36.2996 227 28.1996 224.2 24.0996 222.4C19.9996 220.5 16.4996 219 16.2996 219C16.1996 219 16.0996 228 16.0996 239V259ZM15.8996 299.9C15.9996 317.4 16.1996 319.8 17.8996 322C18.8996 323.4 22.8996 326.2 26.6996 328.2C30.4996 330.2 37.3996 333 42.0996 334.3C46.7996 335.7 56.1996 337.7 63.0996 338.9C69.9996 340.1 84.0996 341.5 94.5996 342.2C108.9 343 118 343 131.6 342.1C141.5 341.5 154.3 340.3 160.1 339.4C165.9 338.5 174.8 336.7 179.8 335.4C184.9 334.1 191.9 331.7 195.3 330.2C198.8 328.6 203.3 325.9 205.3 324.2L209.1 321V280C197.9 285.3 190.3 288 185.1 289.4C179.9 290.8 169.3 292.9 161.6 294.1C153.9 295.2 139.9 296.5 130.6 296.9C121.2 297.4 105.5 297.4 95.5996 296.9C85.6996 296.5 72.3996 295.3 66.0996 294.4C59.7996 293.5 49.3996 291.5 43.0996 289.9C36.7996 288.3 27.9996 285.5 23.6996 283.6L15.7996 280.2L15.8996 299.9ZM16.0996 381.6C21.8996 387 26.8996 390 31.0996 391.8C35.1996 393.5 43.2996 396.1 49.0996 397.5C54.7996 398.8 65.1996 400.7 72.0996 401.6C78.8996 402.4 92.8996 403.4 103.1 403.7C114.1 404.1 127.8 403.8 137.1 403.1C145.6 402.5 158 401 164.6 399.9C171.2 398.8 180.2 396.7 184.6 395.3C189 394 194.8 391.7 197.6 390.3C200.3 389 204 386.4 205.8 384.7L209.1 381.6V341.1C204 344 198.7 346.2 194.1 347.9C189.4 349.5 181.1 351.8 175.6 352.9C170.1 354.1 159.9 355.7 153.1 356.5C146.2 357.3 133.1 358.2 124.1 358.6C114.5 359 100.7 358.8 91.0996 358.1C81.9996 357.5 69.7996 356.3 64.0996 355.4C58.2996 354.6 48.5996 352.6 42.5996 351.1C36.4996 349.6 27.9996 346.7 23.6996 344.8L15.8996 341.2L16.0996 381.6ZM388.5 185.4C409.9 185.6 411.8 185.7 415.5 187.7C417.7 188.9 420.5 191 421.7 192.2C422.9 193.5 427.3 200.4 439.1 220.6L467.8 221.1C494.7 221.6 496.7 221.7 500.5 223.7C502.7 224.9 505.2 226.7 506.1 227.7C507.1 228.8 508.7 231.3 509.9 233.3C511.9 237 512 238.4 512.1 311.6L508.8 316.6C506.8 319.6 503.8 322.5 496.5 326.6L432.5 326.9C389.7 327.1 366.8 326.9 363.5 326.2C360.5 325.5 356.9 323.8 354.6 321.8C352.4 320.1 349.8 316.8 348.8 314.6C347.2 310.9 347 306.4 347 256.1C347 205.1 347.2 201.3 348.9 197.6C349.9 195.4 352 192.4 353.6 190.8C355.2 189.3 358.5 187.4 361 186.6C364.5 185.5 370.5 185.2 388.5 185.4ZM362.9 212.7L363 221.1H421C412.9 207.2 409.5 202.7 408.2 202.1C406.9 201.5 398 201.1 386.1 201.1C369.3 201.1 365.9 201.3 364.5 202.7C363.2 203.9 362.9 206.1 362.9 212.7ZM363 272.6C363 302.8 363.2 308.3 364.5 309.6C365.8 310.9 374.4 311.1 429.2 311.1C488.6 311.2 492.6 311 494.2 309.4C495.8 307.8 496 304.4 496 273.8V240.1C491.8 237.3 482.9 237.1 427.2 237.1H363V272.6ZM389 370.4C408.9 370.6 410.8 370.8 415 372.8C417.5 374 420.4 375.9 421.5 377.1C422.6 378.3 427.1 385.4 439.6 406.6L498.7 407.6L502.6 410.2C505.1 411.8 507.5 414.6 512 423.6V459.3C512 489.4 511.8 495.7 510.4 498.8C509.6 500.9 507.7 503.9 506.2 505.4C504.7 507 501.8 509.1 499.7 510.2C496.2 512 493 512.1 429 512.1C368 512.1 361.8 511.9 359.2 510.4C357.7 509.5 355.2 507.6 353.7 506.2C352.1 504.7 350 501.9 348.9 499.8C347.1 496.3 347 493.2 347 441.6C347 394.5 347.2 386.6 348.6 383.3C349.4 381.3 351.1 378.5 352.3 377.2C353.5 376 355.8 374.2 357.5 373.3C359.1 372.4 362.1 371.4 364 371C365.9 370.6 377.2 370.3 389 370.4ZM362.9 398.1L363 407.1C413.6 407.1 420 406.8 420 405.8C420 405.2 417.8 401 415.2 396.6C412.5 392.2 409.3 388 407.9 387.4C406.3 386.5 399.6 386.1 386.5 386.1C370.9 386.1 367.1 386.4 365.1 387.6C362.9 389.1 362.7 389.8 362.9 398.1ZM363 458.6C363 493.1 363.1 494.1 365 495.1C366.3 495.7 390 496.1 429.9 496.1C484.5 496.1 493.1 495.9 494.4 494.6C495.8 493.3 496 488.7 496 459.3C496 433.4 495.7 425.3 494.8 424.3C493.8 423.3 479.6 423.1 428.2 423.1H363V458.6ZM301.4 63.0997C319.8 63.0997 320.6 63.1997 322.8 65.3997C324.1 66.6997 325.1 68.7997 325.1 70.5997C325.1 72.1997 324.2 74.6997 323.1 76.0997C321.2 78.4997 320.8 78.5997 293 79.0997V248.1H306.2C318 248 319.8 248.2 322.2 250.1C324.5 251.7 325 252.9 325 256.1C325 259.3 324.5 260.5 322.2 262.1C319.8 263.9 318 264.2 293 264.1V433.1L307.1 433.3C320.8 433.6 321.2 433.7 323.1 436.1C324.2 437.5 325.1 439.9 325 441.6C325 443.3 324 445.6 322.7 446.9C320.6 449.1 319.9 449.1 301.5 449.2C284.2 449.2 282.3 449 277.5 445.3L277 264.1H264.5C252.5 264.1 251.9 264 249.5 261.6C247.9 260 247 258 247 256.1C247 254.3 247.9 252.1 249.5 250.6C251.8 248.2 252.4 248.1 277 248.1L277.5 66.8997L279.9 64.9997C282 63.2997 284 63.0997 301.4 63.0997Z" fill="white"/>
</svg>
