<svg width="512" height="512" viewBox="0 0 512 512" fill="none" xmlns="http://www.w3.org/2000/svg">
<path fill-rule="evenodd" clip-rule="evenodd" d="M388.3 0C388.7 0 389.2 0.3 389.4 0.8C389.6 1.2 394 4.1 399.1 7.2C404.3 10.3 412.6 14.8 417.5 17.1C422.4 19.3 431.2 22.8 437 24.7C442.8 26.7 452.4 29.3 458.5 30.6C465.8 32.2 476.4 33.4 511 35.5V102C511 155.4 510.7 170.2 509.5 177C508.7 181.7 507.4 187.7 506.7 190.5C505.9 193.2 504.3 198.2 503.1 201.5C501.8 204.8 499 211.1 496.7 215.5C494.4 219.9 489.9 227 486.8 231.2C483.6 235.5 478 242 474.2 245.7C470.5 249.3 465 254.2 462 256.5C459 258.8 453.8 262.2 450.5 264.2C447.2 266.2 441.4 269.1 437.5 270.7C433.6 272.4 429.1 274.2 427.5 274.8C425.9 275.4 422 276.5 419 277.3C416 278.1 410.4 279.3 406.5 280C402.6 280.6 394.1 281.1 387.5 281.1C380.9 281.1 371.4 280.3 366.5 279.5C361.6 278.6 353.6 276.6 348.7 275C343.9 273.3 336.5 270.2 332.2 268.1C328 266 320.5 261.3 315.6 257.9C310.7 254.4 303.1 247.7 298.6 243C294.1 238.3 288.4 231.3 285.8 227.5C283.2 223.7 279.5 217.2 277.6 213.2C275.6 209.3 272.9 203 271.5 199.2C270.1 195.5 268 188.2 266.8 183C264.8 173.9 264.7 170.3 263.9 35.5L284.2 34.3C295.4 33.6 308.1 32.4 312.5 31.5C316.9 30.6 323.2 29.2 326.5 28.4C329.8 27.5 336.3 25.5 341 23.9C345.7 22.2 354.4 18.5 360.5 15.6C366.6 12.7 375.1 8 379.5 5.2C383.9 2.4 387.8 0 388.2 0L388.3 0ZM367.6 30.5C361.5 33.5 350.5 37.9 343.1 40.4C335.7 42.9 324.9 45.8 319.1 47C313.3 48.1 302.4 49.6 294.8 50.3L281.1 51.5C281.1 165 281.2 169.7 283.1 179C284.2 184.5 286.5 192.5 288.2 196.8C289.8 201 293.1 207.7 295.3 211.5C297.6 215.3 301.5 221.2 304.1 224.5C306.7 227.8 311.3 232.8 314.2 235.5C317.2 238.3 322.5 242.7 326.1 245.2C329.7 247.8 336.9 251.9 342.1 254.4C347.3 256.9 356.1 260.2 361.6 261.7C370.2 263.9 373.8 264.3 386.6 264.4C397.3 264.5 403.9 264 409.6 262.8C414 261.9 421.2 259.7 425.6 258.1C430 256.4 437.6 252.7 442.4 249.8C447.2 246.9 454 242 457.4 239C460.9 236 465.8 231 468.4 228C471 225 474.7 220.3 476.6 217.5C478.4 214.8 481.5 209.2 483.5 205.3C485.5 201.3 488.2 194.5 489.6 190.3C491 186 492.7 180 493.2 177C493.9 173.6 494.5 148.5 494.8 111.5L495.3 51.5C478.5 50.3 468.2 49 461.6 47.8C455 46.7 444.4 44.2 438.1 42.3C431.8 40.4 421.9 36.8 416.1 34.4C410.3 32 401.8 27.7 397.1 25C392.4 22.3 388.2 20.1 387.6 20.1C387 20.2 384.8 21.3 382.6 22.7C380.4 24 373.7 27.6 367.6 30.5ZM1.10041 430H157.1V446H17.1004L17.4004 461.2C17.6004 474.1 18.0004 477.2 19.7004 481C20.8004 483.5 23.5004 487 25.7004 488.9C27.8004 490.8 31.2004 493 33.1004 493.9C36.3004 495.3 58.1004 495.5 256.1 495.5C454.1 495.5 475.9 495.3 479.1 493.9C481 493 484.4 490.8 486.5 488.9C488.7 487 491.4 483.5 492.5 481C494.2 477.2 494.6 474.1 495.1 446H355.1L355.2 430L511.6 430.5V453C511.5 471.2 511.2 476.6 509.8 481.2C508.9 484.4 507.1 488.7 505.9 490.7C504.8 492.8 501.6 496.7 499 499.5C496 502.6 491.8 505.6 487.9 507.4C484.4 509 480.8 510.6 479.8 511.1C478.9 511.6 381.6 512 256.1 512C130.6 512 33.3004 511.6 32.3004 511.1C31.4004 510.6 27.8004 509 24.3004 507.4C20.4004 505.6 16.2004 502.6 13.2004 499.5C10.6004 496.7 7.50041 492.9 6.40041 491C5.30041 489.1 3.60041 485 2.60041 482C1.20041 477.7 0.70041 471.8 0.30041 456C0.000409871 444.7 0.10041 434.3 0.50041 432.7L1.10041 430ZM248 117.1V133L52.5004 133.5L47.1004 136.5C44.2004 138.2 40.7004 140.9 39.5004 142.5C38.2004 144.2 36.5004 147.2 35.6004 149.3C34.2004 152.6 34.0004 167.5 34.0004 413H17.0004L17.1004 285.8C17.1004 203.5 17.4004 156.3 18.1004 152C18.7004 148.5 20.3004 143.1 21.8004 140C23.2004 137 26.7004 132.3 29.5004 129.5C32.3004 126.7 36.6004 123.3 39.0004 122C41.5004 120.8 45.8004 119.1 48.5004 118.5C52.3004 117.5 77.1004 117.2 248 117V117.1ZM248 150.1V166.1H67.0004V413.1H50.0004L50.5004 161.6L52.8004 157.9C54.0004 155.8 56.7004 153.3 58.8004 152.2C62.4004 150.3 65.2004 150.2 248 150.1ZM177 199.7C182.3 200 188.2 201.2 192.5 202.7C196.4 204 202.7 207.3 206.5 209.9C210.3 212.5 215.1 216.7 217.2 219.1C219.3 221.6 222.6 226.6 224.5 230.1C226.4 233.7 228.6 239.6 229.5 243.1C230.5 247.6 231 254.8 231 283.1L234.7 284.9C236.7 285.9 239.9 288.3 241.7 290.4C243.6 292.5 245.7 296.5 246.6 299.4C247.8 303.7 248.1 312.2 248.1 346.9C248 375.7 247.7 390.8 246.9 394.4C246.2 397.3 244.3 401.4 242.6 403.6C240.9 405.8 237.1 408.8 228.5 413.2L172.5 412.9C123.2 412.7 116.2 412.5 113.5 411C111.9 410.1 109 407.9 107.1 406C105.3 404.2 102.9 400.8 101.9 398.6C100.2 395 100.1 390.8 100 300.6L102.8 295.1C104.9 291.1 107 288.7 116.1 282.6V267.1C116.1 257.9 116.6 249 117.4 245.1C118.2 241.6 120.3 235.5 122.2 231.6C124.5 226.8 127.8 222.3 133 217C138.8 211.1 142.3 208.5 148 205.7C152.2 203.8 158.5 201.5 162 200.7C166.4 199.7 171.4 199.4 177 199.7ZM155 220.6C153.1 221.6 149.5 224 147.1 226C144.7 228 141.2 231.9 139.5 234.6C137.8 237.4 135.6 241.9 134.7 244.6C133.4 248.5 133 253.4 133 265.9V282.1L214.5 281.6C215 261.5 214.6 253.2 214 250.1C213.5 247.1 211.9 242.2 210.5 239.1C209.1 236.1 206.1 231.7 203.7 229.3C201.4 226.9 197.7 223.8 195.5 222.4C193.3 221 189.1 219 186 218C182.6 216.8 177.9 216.2 173.5 216.2C169.7 216.2 164.7 216.9 162.5 217.5C160.3 218.2 157 219.6 155 220.6ZM117.3 302.7C116.4 304.5 116 315.7 116 348.1V391.1L120.9 396.6C198.1 397.1 222 397 223.8 396.7C225.6 396.4 228 395.1 229.1 393.9C231 391.7 231.1 390.4 231.1 347.4L231 303.1L226 298.1C144.5 298.3 121.7 298.7 120.5 299.2C119.4 299.7 118 301.3 117.3 302.7ZM478 257.1H495V413.1H478V257.1ZM445 282.1H462V413.1H445V282.1ZM174 430.1H338V444.4C338 452.2 337.6 460.2 337.1 462.1C336.5 464.1 334.4 467.6 332.3 470.1C330.2 472.5 326.3 475.5 318.5 479.1H193.5L188.5 476.8C185.8 475.5 181.9 472.5 179.8 470.1C177.7 467.6 175.5 464.1 175 462.1C174.5 460.2 174.1 452.2 174.1 444.4L174 430.1ZM190.1 452.1C190.4 456.6 191 458.6 192.7 460.3L195 462.6H316.9C321 458.5 321.5 456.7 321.7 452.1L322 446.1H189.7L190.1 452.1ZM67.0004 463.1H83.0004V479.1H67.0004V463.1ZM100 463.1H116V479.1H100V463.1ZM133 463.1H149V479.1H133V463.1ZM387.7 39.2C387.9 39.2 392.8 41.6 398.7 44.5C404.6 47.5 414.4 51.7 420.5 53.9C426.5 56.1 436 59.1 441.5 60.5C447 61.9 456 63.7 461.5 64.6C467 65.4 472.9 66.3 478 67.1L477.7 120.9C477.4 165.4 477.1 175.5 475.8 179.6C475 182.4 473 188 471.4 192.1C469.8 196.3 466.3 203 463.6 207.1C460.9 211.3 456.4 217.1 453.6 220C450.8 223 446 227.3 443 229.6C439.9 232 434.5 235.5 431 237.4C427.4 239.4 422 241.9 419 243C415.9 244.1 411.7 245.5 409.5 246.1C407.3 246.6 401.6 247.5 397 248C392.2 248.5 384.3 248.5 379 248C373.1 247.5 365.8 246 360 244.1C354.7 242.4 347.8 239.5 344.5 237.7C341.2 235.8 335.1 231.7 331 228.5C326.9 225.3 320.9 219.3 317.6 215.1C314.4 211 310.2 204.9 308.4 201.6C306.6 198.3 304.2 193.2 303.1 190.1C302 187.1 300.3 181.7 299.3 178.1C297.9 172.5 297.6 164.7 297.3 119.4C297.1 90.6 297.3 67.1 297.7 67.1C298.1 67.1 304.3 66.2 311.5 65.1C318.6 63.9 329.2 61.7 335 60.2C340.7 58.7 349.7 55.8 355 53.9C360.2 51.9 369.6 47.8 376 44.8C382.3 41.8 387.6 39.3 387.7 39.2ZM361.5 69.1C356.5 70.9 348.2 73.7 343 75.1C337.7 76.6 329.1 78.7 323.7 79.7L313.9 81.6C314 159.6 314.2 168.4 315.6 174.4C316.4 178.4 319.1 185.7 321.5 190.6C323.9 195.6 328 202.1 330.7 205.2C333.3 208.3 337.9 212.8 340.8 215.2C343.7 217.6 348.6 221.1 351.8 222.9C354.9 224.7 361.1 227.3 365.5 228.7C370.9 230.5 376.7 231.5 383.5 231.9C390.7 232.3 395.8 231.9 402 230.7C407.2 229.7 413.9 227.4 419.5 224.7C424.4 222.3 431.2 218.1 434.5 215.4C437.8 212.7 442.6 207.9 445.3 204.6C447.9 201.3 451.9 195 454 190.6C456.1 186.2 458.7 179.7 459.6 176.1C461.3 170.3 461.4 164.9 461.5 125.6V81.6C445.2 78.4 436.9 76.4 432.5 75.2C428.1 74 420.2 71.4 415 69.5C409.7 67.6 401.6 64.2 397 62C392.3 59.9 388 58.1 387.5 58.1C386.9 58.2 382.9 59.9 378.5 62C374.1 64.1 366.4 67.3 361.5 69.1ZM177.9 315.4C180.4 315.8 184.5 317.4 186.9 318.9C189.6 320.5 192.6 323.7 194.4 326.6C196.6 330.2 197.6 333.1 197.8 337.1C198 340.1 197.7 344.4 197.1 346.6C196.4 348.8 194.4 352.4 192.6 354.6C190.8 356.8 187.6 359.5 182 362.6V380.1H165V362.1L160.7 359.8C158.4 358.5 155.3 355.6 153.8 353.5C152.4 351.4 150.6 347.8 149.9 345.6C149.3 343.4 148.9 339.6 149.2 337.1C149.4 334.7 150.4 331.1 151.3 329.1C152.2 327.2 154.4 324.1 156.2 322.3C158 320.4 160.8 318.2 162.5 317.4C164.1 316.6 167.2 315.6 169.4 315.2C171.5 314.8 175.3 314.9 177.9 315.4ZM165.9 339C165.9 341.4 166.667 343.367 168.2 344.9C169.4 346.1 171.7 347.1 173.2 347.1C174.7 347.1 176.7 346.8 177.6 346.4C178.5 346 179.9 344.3 180.7 342.6C181.5 341 181.9 338.6 181.6 337.4C181.2 336.1 180 334.2 178.7 333.1C177.5 332 175.3 331.1 173.9 331.1C172.4 331.1 170 332.1 168.5 333.2C166.4 334.8 165.8 336.1 165.9 339ZM431.3 96.8C431.9 97.2 435.1 99.3 443.9 105.6L440.6 110.1C438.8 112.6 425 132.2 410 153.6C395 175.1 382.4 193.1 381.9 193.6C381.4 194.3 373.8 189.1 361.5 179.9C350.8 171.8 342 164.9 342 164.6C342 164.4 344 161.4 346.5 158.1C348.9 154.8 351.3 152.1 351.7 152.2C352.1 152.2 358.1 156.4 365 161.6C371.8 166.8 377.8 170.7 378.1 170.3C378.4 169.9 390.3 153.1 404.4 132.9C420.8 109.4 430.6 96.4 431.3 96.8Z" fill="white"/>
</svg>
