<svg width="140" height="44" viewBox="0 0 140 44" fill="none" xmlns="http://www.w3.org/2000/svg">
<path d="M19.62 2.05002C19.5136 1.98858 19.3929 1.95624 19.27 1.95624C19.1471 1.95624 19.0264 1.98858 18.92 2.05002L2.32998 11.7C2.22448 11.7609 2.13669 11.8483 2.07531 11.9535C2.01392 12.0588 1.98107 12.1782 1.97998 12.3L1.98998 31.7C1.99107 31.8218 2.02392 31.9413 2.08531 32.0465C2.14669 32.1517 2.23448 32.2391 2.33998 32.3L18.87 41.93C18.9764 41.9915 19.0971 42.0238 19.22 42.0238C19.3429 42.0238 19.4636 41.9915 19.57 41.93L36.4 32.29C36.507 32.2283 36.5957 32.1393 36.6571 32.0322C36.7186 31.925 36.7506 31.8035 36.75 31.68V12.28C36.7506 12.1565 36.7186 12.035 36.6571 11.9279C36.5957 11.8207 36.507 11.7318 36.4 11.67L19.62 2.05002Z" stroke="#F5A4AC" stroke-width="2"/>
<path d="M86.05 20.5201C81.43 18.7601 77.64 22.1 79 26.62C79.72 29.01 83.43 31.34 85.91 29.2301C86.1566 29.0234 86.4 29.0234 86.64 29.2301C87.32 29.8234 88.1066 29.9867 89 29.7201C89.3266 29.6201 89.49 29.4034 89.49 29.0701L89.52 16.5201C89.52 16.4511 89.4936 16.385 89.4467 16.3362C89.3999 16.2874 89.3363 16.2601 89.27 16.2601L86.72 16.23C86.6815 16.2286 86.6432 16.2354 86.6074 16.2499C86.5716 16.2645 86.5391 16.2865 86.5119 16.3147C86.4847 16.3428 86.4634 16.3765 86.4493 16.4135C86.4352 16.4506 86.4286 16.4902 86.43 16.5301L86.56 20.15C86.5733 20.53 86.4033 20.6534 86.05 20.5201Z" stroke="#F5A4AC" stroke-width="2"/>
<path d="M125.541 16.5127C125.541 16.4786 125.535 16.4447 125.522 16.4132C125.509 16.3816 125.49 16.3529 125.465 16.3287C125.441 16.3045 125.413 16.2853 125.381 16.2722C125.35 16.2591 125.316 16.2523 125.282 16.2522L122.762 16.2478C122.728 16.2477 122.694 16.2544 122.662 16.2674C122.631 16.2804 122.602 16.2995 122.578 16.3236C122.554 16.3477 122.534 16.3764 122.521 16.4079C122.508 16.4394 122.501 16.4733 122.501 16.5074L122.479 29.5073C122.479 29.5414 122.485 29.5753 122.498 29.6068C122.511 29.6384 122.53 29.6671 122.554 29.6913C122.579 29.7155 122.607 29.7347 122.639 29.7478C122.67 29.7609 122.704 29.7677 122.738 29.7678L125.258 29.7722C125.292 29.7723 125.326 29.7656 125.358 29.7526C125.389 29.7396 125.418 29.7205 125.442 29.6964C125.466 29.6723 125.486 29.6436 125.499 29.6121C125.512 29.5806 125.519 29.5468 125.519 29.5126L125.541 16.5127Z" stroke="#F5A4AC" stroke-width="2"/>
<path d="M46.4999 27H51.5199C51.8799 27 52.1166 27.1733 52.2299 27.52L52.7599 29.23C52.8089 29.3843 52.9051 29.5189 53.0346 29.6142C53.1641 29.7095 53.3201 29.7606 53.4799 29.76L55.9599 29.74C56.2533 29.74 56.3399 29.6033 56.2199 29.33L51.0699 17.93C50.9017 17.5521 50.6274 17.231 50.2805 17.0057C49.9335 16.7803 49.5287 16.6604 49.1149 16.6604C48.7012 16.6604 48.2964 16.7803 47.9494 17.0057C47.6024 17.231 47.3282 17.5521 47.1599 17.93L42.0899 29.24C41.9299 29.6067 42.0499 29.7867 42.4499 29.78L44.4999 29.75C44.8466 29.7433 45.0799 29.5733 45.1999 29.24L45.7999 27.5C45.85 27.3541 45.9443 27.2275 46.0698 27.1378C46.1953 27.0482 46.3457 27 46.4999 27Z" stroke="#F5A4AC" stroke-width="2"/>
<path d="M60.0299 26.69C58.2299 23.91 61.4299 20.52 64.1299 23.35C64.2499 23.47 64.3833 23.49 64.5299 23.41L66.2699 22.49C66.4366 22.3967 66.4599 22.28 66.3399 22.14C61.4899 16.62 53.4599 23.14 57.6999 27.99C59.9599 30.58 63.8099 30.94 66.0699 28.07C66.2833 27.8034 66.2499 27.5734 65.9699 27.38L64.7199 26.54C64.3799 26.3067 64.0833 26.3534 63.8299 26.68C63.0433 27.6934 61.9833 27.88 60.6499 27.24C60.3899 27.1134 60.1833 26.93 60.0299 26.69Z" stroke="#F5A4AC" stroke-width="2"/>
<path d="M73.2999 29.5L76.2099 29.89C76.5833 29.9434 76.7699 29.7767 76.7699 29.39C76.7599 27.3 77.1699 23.33 76.1299 21.64C74.5699 19.15 70.2899 19.88 68.0799 20.93C67.9882 20.9745 67.9082 21.04 67.8464 21.1211C67.7847 21.2022 67.7429 21.2967 67.7244 21.397C67.7059 21.4972 67.7112 21.6004 67.74 21.6982C67.7687 21.7961 67.8201 21.8857 67.8899 21.96L68.1499 22.24C68.5899 22.7 69.1099 22.8167 69.7099 22.59C71.2966 21.9767 72.3666 21.8934 72.9199 22.34C74.5466 23.64 74.3266 24.1567 72.2599 23.89C70.8599 23.71 68.6099 24.48 67.7699 25.79C66.8366 27.2434 67.1566 28.48 68.7299 29.5C69.9099 30.2667 71.3666 30.2767 73.0999 29.53C73.1655 29.5038 73.2342 29.4935 73.2999 29.5Z" stroke="#F5A4AC" stroke-width="2"/>
<path d="M94.77 25.74L101.2 25.75C101.533 25.75 101.68 25.5867 101.64 25.26C100.64 16.28 88.8 20.15 91.72 26.68C93.35 30.32 97.24 30.84 100.43 28.83C100.498 28.786 100.556 28.7284 100.601 28.6609C100.645 28.5934 100.676 28.5174 100.69 28.4377C100.704 28.3579 100.701 28.2762 100.682 28.1974C100.664 28.1187 100.629 28.0447 100.58 27.98L100.05 27.29C99.966 27.1798 99.8521 27.0964 99.7223 27.0502C99.5926 27.004 99.4527 26.997 99.32 27.03L96.67 27.67C96.4148 27.7321 96.147 27.7178 95.8998 27.6289C95.6527 27.54 95.4372 27.3804 95.28 27.17L94.54 26.2C94.3 25.8934 94.3766 25.74 94.77 25.74Z" stroke="#F5A4AC" stroke-width="2"/>
<path d="M106.33 20.72C105.81 19.94 105.013 19.7233 103.94 20.07C103.66 20.1633 103.52 20.36 103.52 20.66L103.47 29.5C103.463 29.6933 103.557 29.7867 103.75 29.78L106.11 29.72C106.19 29.7133 106.23 29.67 106.23 29.59L106.32 24.5C106.329 24.0895 106.46 23.6906 106.696 23.3541C106.933 23.0175 107.265 22.7585 107.65 22.61L108.37 22.33C108.581 22.2487 108.808 22.2201 109.033 22.2465C109.257 22.2729 109.472 22.3537 109.658 22.4817C109.844 22.6098 109.996 22.7812 110.101 22.9813C110.206 23.1814 110.26 23.4041 110.26 23.63L110.23 29.5C110.23 29.5341 110.237 29.568 110.25 29.5995C110.264 29.631 110.284 29.6597 110.309 29.6838C110.334 29.708 110.364 29.7271 110.397 29.7402C110.429 29.7533 110.464 29.76 110.5 29.76L113.01 29.75C113.183 29.75 113.27 29.6633 113.27 29.49L113.24 24.39C113.241 23.9287 113.402 23.4821 113.695 23.1264C113.989 22.7707 114.397 22.5281 114.85 22.44L115.49 22.31C115.774 22.2555 116.068 22.312 116.314 22.4679C116.559 22.6239 116.736 22.8677 116.81 23.15C117.33 25.1633 117.447 27.2133 117.16 29.3C117.12 29.6 117.25 29.75 117.55 29.75L119.5 29.76C119.8 29.76 119.957 29.61 119.97 29.31C120.04 27.33 120.76 21.74 118.42 20.6C116.387 19.6067 114.543 19.8033 112.89 21.19C112.643 21.4033 112.4 21.4 112.16 21.18C110.467 19.6133 108.707 19.4933 106.88 20.82C106.66 20.98 106.477 20.9467 106.33 20.72Z" stroke="#F5A4AC" stroke-width="2"/>
<path d="M138.052 25.6628C138.229 24.3539 137.843 23.0236 136.98 21.9644C136.116 20.9052 134.846 20.204 133.447 20.0149C132.755 19.9213 132.052 19.9562 131.379 20.1178C130.706 20.2793 130.075 20.5642 129.524 20.9563C128.972 21.3484 128.511 21.8399 128.165 22.4029C127.819 22.9658 127.596 23.5891 127.508 24.2372C127.331 25.5461 127.717 26.8764 128.58 27.9356C129.444 28.9948 130.715 29.696 132.113 29.8851C132.805 29.9787 133.508 29.9438 134.181 29.7822C134.854 29.6207 135.485 29.3358 136.036 28.9437C136.588 28.5516 137.049 28.0601 137.395 27.4971C137.741 26.9342 137.964 26.3109 138.052 25.6628Z" stroke="#F5A4AC" stroke-width="2"/>
<path d="M24.5899 27.68C24.522 27.6737 24.457 27.6511 24.4011 27.6145C24.3452 27.5778 24.3001 27.5281 24.2699 27.47L16.8499 13.83C16.7882 13.7156 16.6962 13.6204 16.584 13.5547C16.4719 13.489 16.3438 13.4553 16.2138 13.4574C16.0839 13.4594 15.9569 13.4971 15.8469 13.5664C15.7369 13.6356 15.648 13.7337 15.5899 13.85L7.96992 28.91C7.68326 29.47 7.85326 29.75 8.47992 29.75H14.2599C14.8733 29.75 15.3333 29.4834 15.6399 28.95L17.2099 26.24C17.3699 25.96 17.2899 25.79 16.9699 25.73C15.5833 25.4567 14.6133 25.9 14.0599 27.06C13.8599 27.48 13.5299 27.7067 13.0699 27.74L11.4499 27.85C11.3875 27.8553 11.3249 27.8437 11.2685 27.8165C11.2121 27.7893 11.1641 27.7475 11.1294 27.6954C11.0946 27.6433 11.0745 27.5829 11.0711 27.5204C11.0677 27.4579 11.0811 27.3956 11.1099 27.34L12.5999 24.54C12.7933 24.18 13.0966 24 13.5099 24H19.7099C19.9899 24 20.1966 24.12 20.3299 24.36L23.0999 29.21C23.191 29.374 23.3244 29.5106 23.4862 29.6056C23.648 29.7006 23.8323 29.7504 24.0199 29.75L30.4899 29.76C30.9433 29.76 31.0633 29.56 30.8499 29.16L22.3799 13.21C22.313 13.0821 22.2131 12.974 22.0902 12.8968C21.9672 12.8195 21.8257 12.7758 21.6799 12.77L20.4599 12.72C20.1266 12.7067 20.0366 12.8467 20.1899 13.14L27.5999 27.65C27.6799 27.7967 27.6366 27.8667 27.4699 27.86L24.5899 27.68Z" stroke="#F5A4AC" stroke-width="2"/>
<path d="M18.79 21.6L16.71 17.53C16.5567 17.2367 16.4067 17.2367 16.26 17.53L14.31 21.45C14.1233 21.8233 14.2367 22.0067 14.65 22L18.56 21.98C18.6046 21.9799 18.6485 21.9683 18.6873 21.9463C18.7261 21.9244 18.7587 21.8928 18.7818 21.8546C18.8049 21.8165 18.8178 21.773 18.8192 21.7284C18.8207 21.6838 18.8106 21.6396 18.79 21.6Z" stroke="#F5A4AC" stroke-width="2"/>
<path d="M84.3934 27.6471C84.7149 27.6156 85.0265 27.5149 85.3103 27.3507C85.5941 27.1865 85.8446 26.9621 86.0474 26.6903C86.2503 26.4185 86.4016 26.1046 86.4927 25.7665C86.5838 25.4284 86.6128 25.0728 86.5782 24.7199C86.5436 24.367 86.446 24.0238 86.291 23.7099C86.136 23.3959 85.9266 23.1174 85.6748 22.8902C85.423 22.6629 85.1337 22.4915 84.8234 22.3856C84.5131 22.2797 84.1879 22.2414 83.8664 22.2729C83.5449 22.3044 83.2334 22.4052 82.9496 22.5693C82.6658 22.7335 82.4153 22.9579 82.2124 23.2297C82.0095 23.5015 81.8582 23.8154 81.7671 24.1535C81.6761 24.4916 81.647 24.8472 81.6816 25.2001C81.7162 25.553 81.8138 25.8962 81.9688 26.2102C82.1238 26.5241 82.3332 26.8026 82.585 27.0299C82.8369 27.2571 83.1262 27.4286 83.4364 27.5345C83.7467 27.6404 84.0719 27.6786 84.3934 27.6471Z" stroke="#F5A4AC" stroke-width="2"/>
<path d="M47.1899 24.29C47.1682 24.3407 47.1595 24.3961 47.1647 24.451C47.1698 24.506 47.1887 24.5588 47.2195 24.6045C47.2504 24.6503 47.2922 24.6876 47.3412 24.713C47.3902 24.7384 47.4447 24.7511 47.4999 24.75L50.5099 24.76C50.5638 24.7604 50.617 24.7477 50.6649 24.7228C50.7127 24.6979 50.7537 24.6616 50.7843 24.6172C50.8149 24.5728 50.8341 24.5216 50.8403 24.4681C50.8465 24.4145 50.8395 24.3603 50.8199 24.31L49.3199 20.69C49.295 20.6297 49.2527 20.578 49.1984 20.5417C49.1441 20.5054 49.0802 20.486 49.0149 20.486C48.9496 20.486 48.8858 20.5054 48.8315 20.5417C48.7772 20.578 48.7349 20.6297 48.7099 20.69L47.1899 24.29Z" stroke="#F5A4AC" stroke-width="2"/>
<path d="M73.51 25.63L70.38 26.03C70.3458 26.0337 70.3126 26.0442 70.2825 26.0608C70.2523 26.0775 70.2258 26.0999 70.2044 26.1269C70.183 26.1539 70.1671 26.1849 70.1578 26.218C70.1485 26.2512 70.1458 26.2858 70.15 26.32L70.2 26.71C70.2248 26.9045 70.2915 27.0917 70.3965 27.2608C70.5014 27.43 70.6425 27.5778 70.8115 27.6957C70.9806 27.8137 71.1744 27.8996 71.3818 27.9483C71.5891 27.9971 71.806 28.0079 72.02 27.98L72.41 27.93C72.6242 27.9029 72.8315 27.8377 73.0199 27.738C73.2084 27.6383 73.3742 27.5062 73.508 27.3492C73.6418 27.1922 73.7409 27.0133 73.7996 26.823C73.8583 26.6327 73.8754 26.4345 73.85 26.24L73.8 25.85C73.7901 25.7827 73.7541 25.7219 73.6999 25.6808C73.6457 25.6397 73.5775 25.6214 73.51 25.63Z" stroke="#F5A4AC" stroke-width="2"/>
<path d="M97.55 22.48C96.49 21.8334 95.4767 22.1534 94.51 23.44C94.4729 23.4911 94.4507 23.5515 94.4459 23.6145C94.4412 23.6775 94.454 23.7405 94.4831 23.7966C94.5122 23.8526 94.5563 23.8995 94.6105 23.9319C94.6647 23.9643 94.7269 23.981 94.79 23.98L98.33 23.94C98.4132 23.9378 98.4945 23.9138 98.5657 23.8707C98.6368 23.8276 98.6952 23.7668 98.7349 23.6945C98.7746 23.6223 98.7941 23.5412 98.7915 23.4596C98.7889 23.3779 98.7642 23.2987 98.72 23.23C98.58 23.0167 98.3833 22.86 98.13 22.76C97.87 22.6534 97.6767 22.56 97.55 22.48Z" stroke="#F5A4AC" stroke-width="2"/>
<path d="M133.812 27.4509C134.112 27.3253 134.383 27.1364 134.608 26.8951C134.833 26.6538 135.009 26.3648 135.125 26.0447C135.24 25.7245 135.294 25.3794 135.282 25.0291C135.271 24.6788 135.195 24.3301 135.058 24.003C134.782 23.3424 134.275 22.8097 133.651 22.522C133.027 22.2343 132.335 22.2153 131.728 22.4691C131.428 22.5948 131.157 22.7837 130.932 23.025C130.707 23.2663 130.531 23.5552 130.415 23.8754C130.3 24.1956 130.246 24.5407 130.257 24.891C130.269 25.2413 130.345 25.5899 130.482 25.917C130.758 26.5777 131.264 27.1104 131.889 27.3981C132.513 27.6857 133.205 27.7047 133.812 27.4509Z" stroke="#F5A4AC" stroke-width="2"/>
</svg>
