<svg width="265" height="78" viewBox="0 0 265 78" fill="none" xmlns="http://www.w3.org/2000/svg">
<path d="M34.34 0.182567L67.0058 18.9099C67.2141 19.0302 67.3868 19.2033 67.5065 19.4119C67.6261 19.6205 67.6885 19.857 67.6872 20.0974V57.8636C67.6885 58.1041 67.6261 58.3406 67.5065 58.5492C67.3868 58.7577 67.2141 58.9309 67.0058 59.0511L34.2427 77.8174C34.0355 77.937 33.8005 78 33.5613 78C33.3221 78 33.0871 77.937 32.88 77.8174L0.700817 59.0706C0.495428 58.952 0.324539 58.7819 0.205043 58.5771C0.0855461 58.3722 0.0215795 58.1397 0.0194676 57.9026L0 20.1364C0.00211199 19.8992 0.0660785 19.6667 0.185575 19.4619C0.305071 19.257 0.475961 19.0869 0.68135 18.9683L32.9773 0.182567C33.1845 0.0629656 33.4194 0 33.6587 0C33.8979 0 34.1328 0.0629656 34.34 0.182567ZM44.0152 50.0768C43.8828 50.0644 43.7565 50.0205 43.6477 49.9491C43.5388 49.8777 43.451 49.781 43.3922 49.668L28.9476 23.1148C28.8274 22.8921 28.6484 22.7067 28.43 22.5788C28.2117 22.4508 27.9624 22.3853 27.7094 22.3893C27.4563 22.3933 27.2092 22.4667 26.9951 22.6015C26.7809 22.7363 26.6078 22.9274 26.4948 23.1538L11.6608 52.4712C11.1028 53.5614 11.4337 54.1065 12.6536 54.1065H23.9056C25.0996 54.1065 25.9951 53.5874 26.5921 52.5491L29.6484 47.2735C29.9599 46.7284 29.8042 46.3975 29.1812 46.2807C26.4818 45.7486 24.5935 46.6116 23.5163 48.8698C23.1269 49.6875 22.4845 50.1287 21.589 50.1936L18.4354 50.4077C18.3139 50.4179 18.192 50.3954 18.0822 50.3425C17.9725 50.2895 17.8789 50.2081 17.8113 50.1067C17.7437 50.0053 17.7046 49.8877 17.6979 49.766C17.6912 49.6443 17.7173 49.5231 17.7735 49.4149L20.6741 43.9641C21.0504 43.2633 21.6409 42.9129 22.4456 42.9129H34.5152C35.0603 42.9129 35.4626 43.1465 35.7222 43.6137L41.1146 53.0553C41.2919 53.3745 41.5516 53.6404 41.8666 53.8253C42.1816 54.0101 42.5403 54.1072 42.9055 54.1065L55.5008 54.1259C56.3833 54.1259 56.6169 53.7366 56.2016 52.9579L39.7129 21.9079C39.5827 21.6588 39.3881 21.4484 39.1488 21.298C38.9096 21.1476 38.6341 21.0625 38.3502 21.0513L35.9752 20.954C35.3263 20.928 35.1511 21.2006 35.4496 21.7716L49.8748 50.0184C50.0305 50.3039 49.9461 50.4402 49.6217 50.4272L44.0152 50.0768Z" fill="#333333"/>
<path d="M49.8749 50.0183L35.4497 21.7715C35.1512 21.2005 35.3265 20.9279 35.9754 20.9539L38.3503 21.0512C38.6342 21.0624 38.9097 21.1475 39.1489 21.2979C39.3882 21.4483 39.5828 21.6587 39.713 21.9078L56.2017 52.9578C56.617 53.7365 56.3834 54.1259 55.5009 54.1259L42.9057 54.1064C42.5404 54.1072 42.1817 54.0101 41.8667 53.8252C41.5517 53.6403 41.2921 53.3744 41.1147 53.0552L35.7223 43.6136C35.4627 43.1464 35.0604 42.9128 34.5153 42.9128H22.4457C21.6411 42.9128 21.0506 43.2632 20.6742 43.964L17.7736 49.4148C17.7175 49.523 17.6914 49.6442 17.698 49.7659C17.7047 49.8876 17.7438 50.0053 17.8114 50.1066C17.879 50.208 17.9726 50.2895 18.0823 50.3424C18.1921 50.3953 18.3141 50.4179 18.4355 50.4077L21.5892 50.1935C22.4846 50.1286 23.1271 49.6874 23.5164 48.8698C24.5936 46.6116 26.4819 45.7485 29.1813 46.2806C29.8043 46.3974 29.96 46.7284 29.6485 47.2735L26.5922 52.549C25.9952 53.5873 25.0997 54.1064 23.9057 54.1064H12.6537C11.4338 54.1064 11.1029 53.5613 11.6609 52.4712L26.4949 23.1537C26.6079 22.9273 26.781 22.7363 26.9952 22.6015C27.2094 22.4667 27.4564 22.3932 27.7095 22.3892C27.9625 22.3852 28.2118 22.4507 28.4301 22.5787C28.6485 22.7066 28.8275 22.892 28.9477 23.1148L43.3923 49.6679C43.4511 49.781 43.5389 49.8776 43.6478 49.949C43.7566 50.0205 43.883 50.0643 44.0153 50.0767L49.6218 50.4271C49.9463 50.4401 50.0306 50.3038 49.8749 50.0183ZM32.7244 38.2407L28.6752 30.3176C28.3767 29.7466 28.0847 29.7466 27.7992 30.3176L24.0031 37.9487C23.6397 38.6755 23.8603 39.0324 24.665 39.0194L32.2766 38.9805C32.3635 38.9802 32.4488 38.9577 32.5244 38.9149C32.6 38.8722 32.6634 38.8107 32.7083 38.7364C32.7533 38.6621 32.7784 38.5775 32.7812 38.4906C32.784 38.4038 32.7644 38.3178 32.7244 38.2407Z" fill="white"/>
<path d="M164.653 35.418L164.4 28.3709C164.397 28.2934 164.41 28.2162 164.437 28.144C164.465 28.0719 164.506 28.0064 164.559 27.9516C164.612 27.8968 164.676 27.8539 164.745 27.8256C164.815 27.7972 164.889 27.7841 164.964 27.7869L169.928 27.8453C170.057 27.8453 170.181 27.8986 170.273 27.9935C170.364 28.0884 170.415 28.2172 170.415 28.3514L170.357 52.7827C170.357 53.4316 170.039 53.8533 169.403 54.048C167.664 54.5671 166.132 54.2492 164.809 53.0941C164.341 52.6918 163.868 52.6918 163.387 53.0941C158.56 57.2017 151.337 52.6658 149.936 48.0132C147.288 39.2141 154.666 32.7121 163.66 36.1383C164.348 36.3978 164.679 36.1577 164.653 35.418ZM160.435 50.0127C161.061 49.9513 161.668 49.7552 162.22 49.4357C162.773 49.1161 163.26 48.6792 163.655 48.1501C164.05 47.6209 164.345 47.0098 164.522 46.3517C164.699 45.6935 164.756 45.0012 164.688 44.3143C164.621 43.6273 164.431 42.9592 164.129 42.348C163.828 41.7368 163.42 41.1946 162.93 40.7523C162.44 40.3099 161.876 39.9761 161.272 39.77C160.668 39.5638 160.035 39.4893 159.409 39.5507C158.783 39.612 158.177 39.8081 157.624 40.1277C157.072 40.4473 156.584 40.8841 156.189 41.4132C155.794 41.9424 155.5 42.5535 155.323 43.2116C155.145 43.8698 155.089 44.5621 155.156 45.2491C155.224 45.936 155.414 46.6042 155.715 47.2153C156.017 47.8265 156.425 48.3687 156.915 48.8111C157.405 49.2534 157.968 49.5872 158.572 49.7934C159.176 49.9996 159.809 50.0741 160.435 50.0127Z" fill="white"/>
<path d="M240.033 27.8302L235.127 27.8216C234.848 27.8211 234.621 28.0473 234.62 28.3269L234.576 53.6341C234.576 53.9136 234.802 54.1406 235.082 54.1411L239.987 54.1497C240.267 54.1502 240.494 53.924 240.494 53.6444L240.538 28.3372C240.539 28.0577 240.313 27.8307 240.033 27.8302Z" fill="white"/>
<path d="M32.7243 38.2407C32.7644 38.3178 32.784 38.4039 32.7812 38.4907C32.7784 38.5775 32.7533 38.6621 32.7083 38.7364C32.6634 38.8107 32.6 38.8722 32.5244 38.915C32.4488 38.9577 32.3635 38.9803 32.2766 38.9805L24.665 39.0194C23.8603 39.0324 23.6397 38.6755 24.0031 37.9487L27.7992 30.3176C28.0847 29.7466 28.3767 29.7466 28.6752 30.3176L32.7243 38.2407Z" fill="black"/>
<path d="M85.305 49.7264L84.137 53.1136C83.9034 53.7625 83.4492 54.0935 82.7743 54.1065L78.7835 54.1649C78.0048 54.1778 77.7712 53.8274 78.0827 53.1136L87.9526 31.0963C88.2801 30.3606 88.8139 29.7355 89.4894 29.2969C90.1649 28.8582 90.953 28.6248 91.7584 28.6248C92.5638 28.6248 93.3519 28.8582 94.0273 29.2969C94.7028 29.7355 95.2366 30.3606 95.5642 31.0963L105.59 53.2888C105.823 53.8209 105.655 54.087 105.084 54.087L100.256 54.1259C99.9447 54.1271 99.641 54.0276 99.3889 53.842C99.1368 53.6565 98.9494 53.3944 98.8541 53.0942L97.8224 49.7653C97.6018 49.0904 97.141 48.753 96.4402 48.753H86.6677C86.3675 48.753 86.0747 48.8468 85.8304 49.0213C85.5861 49.1958 85.4024 49.4423 85.305 49.7264ZM88.0109 43.4774C87.9686 43.5761 87.9517 43.6839 87.9618 43.7909C87.9718 43.8978 88.0086 44.0005 88.0686 44.0896C88.1287 44.1787 88.2101 44.2513 88.3054 44.3008C88.4008 44.3503 88.507 44.3751 88.6144 44.3729L94.474 44.3924C94.579 44.3932 94.6825 44.3683 94.7757 44.3198C94.8688 44.2714 94.9486 44.2009 95.0081 44.1144C95.0677 44.028 95.1051 43.9283 95.1172 43.824C95.1293 43.7198 95.1157 43.6141 95.0775 43.5164L92.1574 36.4693C92.1089 36.3517 92.0266 36.2512 91.9209 36.1806C91.8152 36.1099 91.6909 36.0721 91.5637 36.0721C91.4365 36.0721 91.3122 36.1099 91.2065 36.1806C91.1008 36.2512 91.0185 36.3517 90.9699 36.4693L88.0109 43.4774Z" fill="white"/>
<path d="M114.214 49.2201C116.809 50.466 118.873 50.1026 120.404 48.13C120.897 47.494 121.475 47.4032 122.137 47.8574L124.57 49.4927C125.115 49.869 125.18 50.3168 124.765 50.8359C120.365 56.423 112.87 55.7221 108.471 50.6802C100.217 41.2386 115.849 28.546 125.29 39.2919C125.524 39.5644 125.479 39.7916 125.154 39.9732L121.767 41.7642C121.481 41.92 121.222 41.881 120.988 41.6474C115.732 36.1382 109.503 42.7376 113.007 48.1494C113.305 48.6166 113.708 48.9735 114.214 49.2201Z" fill="white"/>
<path d="M138.45 53.6783C135.076 55.1318 132.24 55.1123 129.943 53.6199C126.88 51.6342 126.257 49.2268 128.074 46.3976C129.71 43.8474 134.09 42.3484 136.815 42.6988C140.838 43.2179 141.267 42.2121 138.1 39.6814C137.023 38.8119 134.94 38.9741 131.851 40.1681C130.683 40.6093 129.671 40.3822 128.814 39.4867L128.308 38.9416C128.172 38.797 128.072 38.6224 128.016 38.432C127.96 38.2416 127.95 38.0407 127.986 37.8455C128.022 37.6503 128.103 37.4664 128.223 37.3085C128.344 37.1505 128.499 37.0231 128.678 36.9365C132.98 34.8925 141.312 33.4714 144.349 38.3187C146.373 41.6086 145.575 49.3371 145.595 53.4057C145.595 54.1584 145.231 54.4829 144.505 54.3791L138.84 53.6199C138.712 53.6071 138.578 53.6271 138.45 53.6783ZM139.248 46.0861L133.155 46.8648C133.089 46.872 133.024 46.8924 132.965 46.9248C132.907 46.9572 132.855 47.0009 132.813 47.0534C132.772 47.106 132.741 47.1662 132.723 47.2308C132.705 47.2953 132.699 47.3628 132.708 47.4293L132.805 48.1885C132.853 48.5671 132.983 48.9315 133.187 49.2608C133.392 49.5901 133.666 49.8778 133.995 50.1075C134.325 50.3372 134.702 50.5043 135.105 50.5992C135.509 50.6942 135.931 50.7151 136.348 50.6609L137.107 50.5635C137.524 50.5108 137.928 50.3838 138.294 50.1898C138.661 49.9957 138.984 49.7385 139.245 49.4328C139.505 49.1271 139.698 48.779 139.812 48.4085C139.926 48.038 139.96 47.6523 139.91 47.2736L139.813 46.5144C139.794 46.3833 139.724 46.265 139.618 46.1849C139.513 46.1049 139.38 46.0694 139.248 46.0861Z" fill="white"/>
<path d="M180.635 46.3001C179.87 46.3001 179.72 46.5986 180.188 47.1956L181.628 49.0839C181.934 49.4935 182.354 49.8041 182.835 49.9771C183.316 50.1502 183.837 50.178 184.334 50.0572L189.493 48.8114C189.751 48.747 190.024 48.7606 190.276 48.8505C190.529 48.9405 190.75 49.1028 190.914 49.3175L191.946 50.6607C192.041 50.7866 192.108 50.9307 192.145 51.0839C192.182 51.2372 192.187 51.3964 192.159 51.5516C192.132 51.7068 192.073 51.8547 191.986 51.9861C191.899 52.1175 191.786 52.2296 191.654 52.3154C185.444 56.2283 177.871 55.216 174.698 48.13C169.013 35.418 192.062 27.8842 194.009 45.3657C194.087 46.0016 193.802 46.3196 193.153 46.3196L180.635 46.3001ZM186.047 39.9538C183.984 38.6949 182.011 39.3179 180.129 41.8227C180.057 41.9221 180.014 42.0397 180.004 42.1623C179.995 42.2849 180.02 42.4076 180.077 42.5168C180.133 42.6259 180.219 42.7171 180.325 42.7802C180.43 42.8433 180.551 42.8757 180.674 42.8739L187.566 42.796C187.727 42.7916 187.886 42.745 188.024 42.6611C188.163 42.5771 188.276 42.4587 188.354 42.3181C188.431 42.1774 188.469 42.0196 188.464 41.8607C188.459 41.7018 188.411 41.5476 188.325 41.4139C188.052 40.9986 187.669 40.6936 187.176 40.4989C186.67 40.2912 186.294 40.1096 186.047 39.9538Z" fill="white"/>
<path d="M204.21 36.7223C207.766 34.1397 211.192 34.3733 214.489 37.4231C214.956 37.8514 215.43 37.8579 215.91 37.4426C219.129 34.7431 222.717 34.3603 226.675 36.294C231.231 38.5133 229.829 49.3954 229.693 53.2499C229.667 53.8339 229.362 54.1259 228.778 54.1259L224.982 54.1064C224.398 54.1064 224.145 53.8144 224.222 53.2304C224.78 49.1683 224.553 45.1775 223.541 41.2581C223.397 40.7086 223.052 40.234 222.575 39.9303C222.098 39.6267 221.524 39.5168 220.971 39.6229L219.726 39.876C218.844 40.0474 218.05 40.5198 217.478 41.2122C216.906 41.9046 216.593 42.7741 216.591 43.6721L216.65 53.6003C216.65 53.9377 216.481 54.1064 216.144 54.1064L211.257 54.1259C211.188 54.1259 211.12 54.1128 211.056 54.0874C210.992 54.0619 210.934 54.0247 210.886 53.9777C210.837 53.9307 210.798 53.8749 210.772 53.8134C210.745 53.752 210.732 53.6862 210.732 53.6198L210.79 42.1926C210.791 41.7527 210.685 41.3193 210.481 40.9298C210.276 40.5403 209.98 40.2064 209.618 39.9572C209.255 39.7079 208.838 39.5508 208.401 39.4993C207.964 39.4478 207.521 39.5036 207.111 39.6618L205.709 40.2069C204.96 40.4961 204.314 41.0003 203.853 41.6554C203.392 42.3106 203.137 43.0871 203.12 43.8862L202.945 53.795C202.945 53.9507 202.867 54.0351 202.711 54.048L198.117 54.1648C197.741 54.1778 197.559 53.9961 197.572 53.6198L197.669 36.4108C197.669 35.8268 197.942 35.4439 198.487 35.2623C200.576 34.5874 202.127 35.0092 203.14 36.5276C203.425 36.9689 203.782 37.0338 204.21 36.7223Z" fill="white"/>
<path d="M264.893 46.1498C264.723 47.4115 264.288 48.6249 263.615 49.7207C262.941 50.8166 262.042 51.7735 260.969 52.5368C259.895 53.3 258.668 53.8547 257.357 54.1692C256.047 54.4836 254.679 54.5517 253.331 54.3694C250.609 54.0014 248.135 52.6362 246.454 50.5743C244.773 48.5124 244.022 45.9226 244.367 43.3746C244.538 42.113 244.972 40.8996 245.645 39.8037C246.319 38.7078 247.218 37.7509 248.291 36.9877C249.365 36.2244 250.592 35.6697 251.903 35.3553C253.213 35.0408 254.581 34.9728 255.929 35.155C258.651 35.5231 261.125 36.8882 262.806 38.9501C264.487 41.0121 265.238 43.6019 264.893 46.1498ZM256.639 49.6307C257.224 49.3861 257.75 49.0184 258.189 48.5487C258.627 48.079 258.969 47.5164 259.194 46.8931C259.419 46.2699 259.524 45.5981 259.502 44.9161C259.479 44.2342 259.331 43.5555 259.064 42.9187C258.527 41.6326 257.541 40.5956 256.326 40.0356C255.11 39.4756 253.764 39.4385 252.582 39.9326C251.997 40.1773 251.471 40.545 251.032 41.0147C250.594 41.4844 250.252 42.047 250.027 42.6702C249.802 43.2935 249.697 43.9653 249.719 44.6472C249.742 45.3292 249.89 46.0079 250.157 46.6447C250.695 47.9307 251.68 48.9678 252.895 49.5278C254.111 50.0878 255.458 50.1248 256.639 49.6307Z" fill="white"/>
</svg>
