<svg width="136" height="79" viewBox="0 0 136 79" fill="none" xmlns="http://www.w3.org/2000/svg">
<path d="M69.8142 24.4725V0.331543H77.4825V23.9992C77.4825 26.3975 77.9874 27.0917 79.3444 27.0917C80.796 27.0917 81.1747 26.429 81.1747 23.9992V0.331543H88.843V24.4725C88.843 31.5412 85.277 34.5391 79.3444 34.5391C73.1592 34.5076 69.8142 31.5412 69.8142 24.4725Z" fill="white"/>
<path d="M100.235 34.0027H92.6929V0.331543H102.191C109.008 0.331543 111.722 3.04543 111.722 8.75721V14.6899C111.722 20.3386 109.008 23.6836 102.191 23.6836H100.235V34.0027ZM100.235 16.962H101.781C103.264 16.962 104.022 16.11 104.022 14.469V9.07278C104.022 7.49494 103.328 6.73757 101.813 6.73757H100.235V16.962Z" fill="white"/>
<path d="M115.067 34.0027V0.331543H121.946L127.879 16.8042L128.384 18.6661L128.257 15.6366V0.331543H135.2V34.0027H128.478L122.388 17.53L121.82 15.6051L122.009 18.9185V33.9711H115.067V34.0027Z" fill="white"/>
<path d="M28.6326 0.331577V78.7186H17.1775V21.2853L16.8619 21.5693C11.8129 26.3344 6.19574 30.5314 0.199951 34.0658V21.0959C3.35563 18.8869 6.35353 16.4571 9.16209 13.8379C13.5169 9.76703 17.4615 5.22285 20.8697 0.299988H28.6326V0.331577Z" fill="white"/>
<path d="M61.3255 21.1275V34.0974C55.2982 30.563 49.7126 26.3344 44.6635 21.6009L44.3479 21.3168V78.7502H32.8928V0.331543H40.6874C44.0955 5.2544 48.0085 9.79859 52.3949 13.8694C55.1719 16.4887 58.1698 18.9185 61.3255 21.1275Z" fill="white"/>
<path d="M71.1711 49.5601V43.1541H72.8121V49.4655C72.8121 50.3491 73.033 50.6646 73.6326 50.6646C74.2321 50.6646 74.453 50.3491 74.453 49.4655V43.1541H76.0624V49.5601C76.0624 51.422 75.2104 52.2425 73.6326 52.2425C71.9916 52.2425 71.1711 51.422 71.1711 49.5601Z" fill="white"/>
<path d="M77.2932 52.0847V43.1541H78.7133L80.7645 48.2032L81.08 49.213L80.9854 48.0139V43.1857H82.437V52.1162H81.0485L78.9342 47.0356L78.6186 45.9627L78.7133 47.2881V52.1162H77.2932V52.0847Z" fill="white"/>
<path d="M83.51 50.57H84.5514V44.6373H83.51V43.1541H87.139V44.6373H86.1292V50.57H87.139V52.0847H83.51V50.57Z" fill="white"/>
<path d="M87.8018 43.1541H89.4427L90.5156 48.4872L90.6103 49.8126L90.705 48.4872L91.7464 43.1541H93.3873L91.4308 52.0847H89.8214L87.8018 43.1541Z" fill="white"/>
<path d="M94.176 52.0847V43.1541H98.3415V44.6057H95.7539V46.8147H98.026V48.2979H95.7539V50.57H98.4046V52.0847H94.176Z" fill="white"/>
<path d="M100.992 52.0847H99.446V43.1541H101.844C103.517 43.1541 104.211 43.8168 104.211 45.3V46.3729C104.211 47.2565 103.896 47.6983 103.264 47.9507C103.927 48.1716 104.116 48.6134 104.116 49.497V51.5167C104.116 51.7691 104.211 51.9585 104.369 52.1162H102.696C102.57 52.0216 102.539 51.8007 102.539 51.5167V49.5917C102.539 48.9606 102.349 48.7081 101.687 48.7081H101.024V52.0847H100.992ZM100.992 47.2565H101.75C102.381 47.2565 102.633 46.9725 102.633 46.3729V45.3631C102.633 44.7635 102.381 44.5111 101.75 44.5111H100.992V47.2565Z" fill="white"/>
<path d="M105.126 49.9073V48.7081H106.799V49.8757C106.799 50.4437 106.988 50.7909 107.651 50.7909C108.25 50.7909 108.44 50.4437 108.44 49.9388V49.4655C108.44 49.213 108.377 49.0237 108.25 48.8343C107.998 48.4872 107.525 48.2348 107.02 48.0139C106.736 47.8561 106.452 47.6983 106.199 47.509C105.663 47.1303 105.252 46.5623 105.252 45.6471V45.2684C105.252 43.8799 106.01 43.0594 107.619 43.0594C109.229 43.0594 109.954 43.8484 109.954 45.1422V46.1205H108.377V45.2369C108.377 44.6373 108.156 44.3848 107.619 44.3848C107.083 44.3848 106.862 44.732 106.862 45.2684V45.5209C106.862 45.7733 106.925 45.9311 107.051 46.0889C107.304 46.4045 107.777 46.6254 108.25 46.8778C108.534 47.0356 108.818 47.1934 109.102 47.3827C109.639 47.7614 110.049 48.3294 110.049 49.2761V49.9704C110.049 51.3904 109.229 52.2425 107.619 52.2425C105.757 52.2425 105.126 51.422 105.126 49.9073Z" fill="white"/>
<path d="M110.807 50.57H111.848V44.6373H110.807V43.1541H114.436V44.6373H113.426V50.57H114.436V52.0847H110.807V50.57Z" fill="white"/>
<path d="M117.781 43.1541C118.317 43.1541 118.759 43.2488 119.169 43.4381C119.958 43.7852 120.463 44.5426 120.463 45.8364V49.4339C120.463 50.0651 120.337 50.57 120.116 50.9486C119.674 51.7376 118.822 52.0847 117.781 52.0847H115.477V43.1541H117.781ZM117.086 50.6646H117.718C118.412 50.6646 118.791 50.2544 118.791 49.2761V45.8996C118.791 44.9213 118.38 44.5111 117.686 44.5111H117.086V50.6646Z" fill="white"/>
<path d="M122.83 50.7593L122.577 52.0847H120.968L122.956 43.1541H124.565L126.585 52.0847H124.975L124.723 50.7593H122.83ZM124.439 49.3708L123.839 46.4045L123.745 45.1422L123.65 46.4045L123.082 49.3708H124.439Z" fill="white"/>
<path d="M129.677 43.1541C130.214 43.1541 130.656 43.2488 131.066 43.4381C131.855 43.7852 132.36 44.5426 132.36 45.8364V49.4339C132.36 50.0651 132.234 50.57 132.013 50.9486C131.571 51.7376 130.719 52.0847 129.677 52.0847H127.374V43.1541H129.677ZM128.983 50.6646H129.614C130.309 50.6646 130.687 50.2544 130.687 49.2761V45.8996C130.687 44.9213 130.277 44.5111 129.583 44.5111H128.983V50.6646Z" fill="white"/>
<path d="M72.8122 65.4016H71.2344V56.4711H73.6011C75.3368 56.4711 76.0941 57.1338 76.0941 58.7432V60.2579C76.0941 61.7411 75.3683 62.6246 73.6327 62.6246H72.8438V65.4016H72.8122ZM72.8122 61.173H73.538C74.1692 61.173 74.4847 60.8259 74.4847 60.1948V58.7747C74.4847 58.0805 74.2007 57.828 73.538 57.828H72.8122V61.173Z" fill="white"/>
<path d="M78.65 65.4016H77.1038V56.4711H79.5021C81.1746 56.4711 81.8688 57.1338 81.8688 58.6169V59.6899C81.8688 60.5735 81.5533 61.0152 80.9221 61.2677C81.5848 61.4886 81.7742 61.9304 81.7742 62.814V64.8336C81.7742 65.0861 81.8688 65.2754 82.0266 65.4332H80.3226C80.1963 65.3385 80.1648 65.1176 80.1648 64.8336V62.9087C80.1648 62.2775 79.9754 62.0251 79.3127 62.0251H78.65V65.4016ZM78.65 60.5419H79.4074C80.0385 60.5419 80.291 60.2579 80.291 59.6583V58.6485C80.291 58.0489 80.0385 57.7965 79.4074 57.7965H78.65V60.5419Z" fill="white"/>
<path d="M82.7525 63.8869H83.7939V57.9542H82.7525V56.4711H86.3815V57.9542H85.3402V63.8869H86.35V65.4016H82.7209V63.8869H82.7525Z" fill="white"/>
<path d="M87.0442 56.4396H88.6851L89.7581 61.7727L89.8527 63.0981L89.9474 61.7727L90.9888 56.4396H92.6297L90.6732 65.3702H89.0638L87.0442 56.4396Z" fill="white"/>
<path d="M94.0498 64.0763L93.7974 65.4016H92.188L94.1761 56.4711H95.7855L97.8051 65.4016H96.1957L95.9432 64.0763H94.0498ZM95.6908 62.6562L95.0912 59.6899L94.9965 58.4276L94.9019 59.6899L94.3338 62.6562H95.6908Z" fill="white"/>
<path d="M100.929 56.4396C101.466 56.4396 101.908 56.5342 102.318 56.7236C103.107 57.0707 103.612 57.8281 103.612 59.1219V62.7509C103.612 63.3821 103.485 63.887 103.265 64.2657C102.823 65.0546 101.971 65.4017 100.929 65.4017H98.6257V56.4711H100.929V56.4396ZM100.235 63.9817H100.866C101.561 63.9817 101.939 63.5714 101.939 62.5932V59.2166C101.939 58.2383 101.529 57.8281 100.835 57.8281H100.235V63.9817Z" fill="white"/>
<path d="M105.947 64.0763L105.694 65.4016H104.085L106.073 56.4711H107.682L109.702 65.4016H108.093L107.84 64.0763H105.947ZM107.588 62.6562L106.988 59.6899L106.894 58.4276L106.799 59.6899L106.231 62.6562H107.588Z" fill="white"/>
<path d="M73.538 69.7565C74.0745 69.7565 74.5163 69.8512 74.9265 70.0405C75.7154 70.3877 76.2204 71.145 76.2204 72.4389V76.0679C76.2204 76.699 76.0941 77.2039 75.8732 77.5826C75.4314 78.3715 74.5794 78.7187 73.538 78.7187H71.2344V69.7881H73.538V69.7565ZM72.8438 77.2671H73.4749C74.1692 77.2671 74.5478 76.8568 74.5478 75.8785V72.502C74.5478 71.5237 74.1376 71.1135 73.4434 71.1135H72.8438V77.2671Z" fill="white"/>
<path d="M77.3879 78.6871V69.7565H81.5534V71.2081H78.9658V73.4171H81.2379V74.9003H78.9658V77.1724H81.6166V78.6871H77.3879Z" fill="white"/>
<path d="M82.658 69.7565H84.2989V77.0777H86.6972V78.6871H82.658V69.7565Z" fill="white"/>
<path d="M90.3894 78.6871V69.7565H91.8095L93.8607 74.8056L94.1762 75.8154L94.0816 74.6163V69.7881H95.5332V78.7187H94.1447L92.0304 73.638L91.7148 72.5651L91.8095 73.8905V78.7187H90.3894V78.6871Z" fill="white"/>
<path d="M96.7322 76.131V72.3758C96.7322 70.5455 97.742 69.6619 99.3198 69.6619C100.898 69.6619 101.907 70.5455 101.907 72.3758V76.131C101.907 77.9929 100.898 78.8449 99.3198 78.8449C97.6789 78.8449 96.7322 77.9929 96.7322 76.131ZM100.203 76.0048V72.4389C100.203 71.4922 99.951 71.0819 99.2883 71.0819C98.6256 71.0819 98.3731 71.5237 98.3731 72.4389V76.0048C98.3731 76.9199 98.6256 77.3617 99.2883 77.3617C99.951 77.3302 100.203 76.9199 100.203 76.0048Z" fill="white"/>
<path d="M104.59 78.6871H103.043V69.7565H105.442C107.114 69.7565 107.809 70.4192 107.809 71.9024V72.9753C107.809 73.8589 107.493 74.3007 106.862 74.5532C107.525 74.7741 107.714 75.2159 107.714 76.0995V78.1191C107.714 78.3715 107.809 78.5609 107.966 78.7187H106.262C106.136 78.624 106.104 78.4031 106.104 78.1191V76.1941C106.104 75.563 105.915 75.3105 105.252 75.3105H104.59V78.6871ZM104.59 73.8589H105.347C105.978 73.8589 106.231 73.5749 106.231 72.9753V71.9655C106.231 71.3659 105.978 71.1135 105.347 71.1135H104.59V73.8589Z" fill="white"/>
<path d="M111.595 78.6871H109.986V71.2081H108.503V69.725H113.079V71.2081H111.595V78.6871Z" fill="white"/>
<path d="M113.994 78.6871V69.7565H118.159V71.2081H115.572V73.4171H117.844V74.9003H115.572V77.1724H118.223V78.6871H113.994Z" fill="white"/>
</svg>
