<svg width="138" height="42" viewBox="0 0 138 42" fill="none" xmlns="http://www.w3.org/2000/svg">
<path d="M18.62 1.05002L35.4 10.67C35.507 10.7318 35.5957 10.8207 35.6571 10.9279C35.7186 11.035 35.7506 11.1565 35.75 11.28V30.68C35.7506 30.8035 35.7186 30.925 35.6571 31.0322C35.5957 31.1393 35.507 31.2283 35.4 31.29L18.57 40.93C18.4636 40.9915 18.3429 41.0238 18.22 41.0238C18.0971 41.0238 17.9764 40.9915 17.87 40.93L1.33998 31.3C1.23448 31.2391 1.14669 31.1517 1.08531 31.0465C1.02392 30.9413 0.991066 30.8218 0.989981 30.7L0.97998 11.3C0.981065 11.1782 1.01392 11.0588 1.07531 10.9535C1.13669 10.8483 1.22448 10.7609 1.32998 10.7L17.92 1.05002C18.0264 0.988582 18.1471 0.956238 18.27 0.956238C18.3929 0.956238 18.5136 0.988582 18.62 1.05002ZM23.59 26.68C23.522 26.6737 23.4571 26.6511 23.4012 26.6144C23.3453 26.5777 23.3002 26.5281 23.27 26.47L15.85 12.83C15.7882 12.7156 15.6963 12.6204 15.5841 12.5546C15.4719 12.4889 15.3439 12.4553 15.2139 12.4573C15.0839 12.4594 14.957 12.4971 14.847 12.5663C14.737 12.6356 14.6481 12.7337 14.59 12.85L6.96998 27.91C6.68332 28.47 6.85331 28.75 7.47998 28.75H13.26C13.8733 28.75 14.3333 28.4834 14.64 27.95L16.21 25.24C16.37 24.96 16.29 24.79 15.97 24.73C14.5833 24.4567 13.6133 24.9 13.06 26.06C12.86 26.48 12.53 26.7067 12.07 26.74L10.45 26.85C10.3876 26.8553 10.325 26.8437 10.2686 26.8165C10.2122 26.7893 10.1641 26.7475 10.1294 26.6954C10.0947 26.6433 10.0746 26.5829 10.0712 26.5204C10.0677 26.4579 10.0811 26.3956 10.11 26.34L11.6 23.54C11.7933 23.18 12.0966 23 12.51 23H18.71C18.99 23 19.1966 23.12 19.33 23.36L22.1 28.21C22.1911 28.374 22.3245 28.5106 22.4863 28.6056C22.6481 28.7005 22.8324 28.7504 23.02 28.75L29.49 28.76C29.9433 28.76 30.0633 28.56 29.85 28.16L21.38 12.21C21.3131 12.0821 21.2131 11.974 21.0902 11.8967C20.9673 11.8195 20.8258 11.7758 20.68 11.77L19.46 11.72C19.1266 11.7067 19.0366 11.8467 19.19 12.14L26.6 26.65C26.68 26.7967 26.6366 26.8667 26.47 26.86L23.59 26.68Z" fill="#333333"/>
<path d="M26.6 26.65L19.19 12.14C19.0367 11.8467 19.1267 11.7067 19.46 11.72L20.68 11.77C20.8259 11.7757 20.9674 11.8194 21.0903 11.8967C21.2132 11.974 21.3131 12.082 21.38 12.21L29.85 28.16C30.0634 28.56 29.9434 28.76 29.49 28.76L23.02 28.75C22.8324 28.7504 22.6482 28.7005 22.4864 28.6055C22.3246 28.5106 22.1912 28.374 22.1 28.21L19.33 23.36C19.1967 23.12 18.99 23 18.71 23H12.51C12.0967 23 11.7934 23.18 11.6 23.54L10.11 26.34C10.0812 26.3955 10.0678 26.4578 10.0712 26.5203C10.0746 26.5828 10.0948 26.6433 10.1295 26.6954C10.1642 26.7474 10.2123 26.7893 10.2686 26.8165C10.325 26.8437 10.3877 26.8552 10.45 26.85L12.07 26.74C12.53 26.7067 12.86 26.48 13.06 26.06C13.6134 24.9 14.5834 24.4567 15.97 24.73C16.29 24.79 16.37 24.96 16.21 25.24L14.64 27.95C14.3334 28.4833 13.8734 28.75 13.26 28.75H7.48005C6.85338 28.75 6.68338 28.47 6.97005 27.91L14.59 12.85C14.6481 12.7337 14.737 12.6356 14.847 12.5663C14.9571 12.4971 15.084 12.4594 15.214 12.4573C15.344 12.4552 15.472 12.4889 15.5842 12.5546C15.6963 12.6203 15.7883 12.7156 15.85 12.83L23.27 26.47C23.3002 26.5281 23.3454 26.5777 23.4013 26.6144C23.4572 26.6511 23.5221 26.6736 23.59 26.68L26.47 26.86C26.6367 26.8667 26.68 26.7967 26.6 26.65ZM17.79 20.6L15.71 16.53C15.5567 16.2367 15.4067 16.2367 15.26 16.53L13.31 20.45C13.1234 20.8233 13.2367 21.0067 13.65 21L17.56 20.98C17.6047 20.9799 17.6485 20.9683 17.6873 20.9463C17.7262 20.9244 17.7587 20.8928 17.7818 20.8546C17.8049 20.8164 17.8178 20.773 17.8193 20.7284C17.8207 20.6838 17.8106 20.6396 17.79 20.6Z" fill="white"/>
<path d="M85.56 19.15L85.43 15.53C85.4286 15.4902 85.4352 15.4505 85.4493 15.4135C85.4634 15.3764 85.4847 15.3428 85.5119 15.3146C85.5391 15.2865 85.5716 15.2644 85.6074 15.2499C85.6432 15.2353 85.6815 15.2285 85.72 15.23L88.27 15.26C88.3363 15.26 88.3999 15.2874 88.4467 15.3361C88.4936 15.3849 88.52 15.451 88.52 15.52L88.49 28.07C88.49 28.4033 88.3266 28.62 88 28.72C87.1066 28.9867 86.32 28.8233 85.64 28.23C85.4 28.0233 85.1566 28.0233 84.91 28.23C82.43 30.34 78.72 28.01 78 25.62C76.64 21.1 80.43 17.76 85.05 19.52C85.4033 19.6533 85.5733 19.53 85.56 19.15ZM83.3935 26.6471C83.715 26.6156 84.0265 26.5148 84.3103 26.3507C84.5941 26.1865 84.8446 25.9621 85.0475 25.6903C85.2504 25.4185 85.4017 25.1046 85.4927 24.7665C85.5838 24.4284 85.6129 24.0728 85.5783 23.7199C85.5437 23.367 85.4461 23.0238 85.2911 22.7098C85.136 22.3959 84.9266 22.1174 84.6748 21.8901C84.423 21.6629 84.1337 21.4914 83.8234 21.3855C83.5132 21.2796 83.188 21.2414 82.8665 21.2729C82.5449 21.3044 82.2334 21.4051 81.9496 21.5693C81.6658 21.7335 81.4153 21.9579 81.2124 22.2297C81.0096 22.5015 80.8583 22.8154 80.7672 23.1535C80.6761 23.4916 80.6471 23.8472 80.6817 24.2001C80.7163 24.553 80.8139 24.8962 80.9689 25.2101C81.1239 25.5241 81.3333 25.8026 81.5851 26.0298C81.8369 26.2571 82.1262 26.4285 82.4365 26.5344C82.7468 26.6403 83.072 26.6786 83.3935 26.6471Z" fill="white"/>
<path d="M124.282 15.2522L121.762 15.2478C121.618 15.2476 121.502 15.3638 121.501 15.5074L121.479 28.5074C121.478 28.6509 121.595 28.7676 121.738 28.7678L124.258 28.7722C124.402 28.7725 124.518 28.6563 124.519 28.5127L124.541 15.5127C124.542 15.3691 124.425 15.2525 124.282 15.2522Z" fill="white"/>
<path d="M17.79 20.6C17.8106 20.6396 17.8207 20.6838 17.8192 20.7284C17.8178 20.773 17.8049 20.8165 17.7818 20.8546C17.7587 20.8928 17.7261 20.9244 17.6873 20.9463C17.6485 20.9683 17.6046 20.9799 17.56 20.98L13.65 21C13.2367 21.0067 13.1233 20.8233 13.31 20.45L15.26 16.53C15.4067 16.2367 15.5567 16.2367 15.71 16.53L17.79 20.6Z" fill="black"/>
<path d="M44.8001 26.5L44.2001 28.24C44.0801 28.5733 43.8467 28.7433 43.5001 28.75L41.4501 28.78C41.0501 28.7867 40.9301 28.6067 41.0901 28.24L46.1601 16.93C46.3283 16.5521 46.6025 16.231 46.9495 16.0057C47.2965 15.7803 47.7013 15.6604 48.1151 15.6604C48.5288 15.6604 48.9336 15.7803 49.2806 16.0057C49.6276 16.231 49.9018 16.5521 50.0701 16.93L55.2201 28.33C55.3401 28.6033 55.2534 28.74 54.9601 28.74L52.4801 28.76C52.3203 28.7606 52.1643 28.7095 52.0347 28.6142C51.9052 28.5189 51.809 28.3843 51.7601 28.23L51.2301 26.52C51.1167 26.1733 50.8801 26 50.5201 26H45.5001C45.3458 26 45.1954 26.0482 45.0699 26.1378C44.9444 26.2275 44.8501 26.3541 44.8001 26.5ZM46.1901 23.29C46.1683 23.3407 46.1596 23.3961 46.1648 23.451C46.17 23.506 46.1888 23.5587 46.2197 23.6045C46.2505 23.6503 46.2923 23.6876 46.3413 23.713C46.3903 23.7384 46.4449 23.7511 46.5001 23.75L49.5101 23.76C49.564 23.7604 49.6172 23.7476 49.665 23.7228C49.7128 23.6979 49.7538 23.6616 49.7844 23.6172C49.815 23.5728 49.8342 23.5216 49.8405 23.4681C49.8467 23.4145 49.8397 23.3602 49.8201 23.31L48.3201 19.69C48.2951 19.6296 48.2528 19.578 48.1985 19.5417C48.1442 19.5054 48.0804 19.486 48.0151 19.486C47.9497 19.486 47.8859 19.5054 47.8316 19.5417C47.7773 19.578 47.735 19.6296 47.7101 19.69L46.1901 23.29Z" fill="white"/>
<path d="M59.65 26.24C60.9834 26.88 62.0434 26.6933 62.83 25.68C63.0834 25.3533 63.38 25.3066 63.72 25.54L64.97 26.38C65.25 26.5733 65.2834 26.8033 65.07 27.07C62.81 29.94 58.96 29.58 56.7 26.99C52.46 22.14 60.49 15.62 65.34 21.14C65.46 21.28 65.4367 21.3966 65.27 21.49L63.53 22.41C63.3834 22.49 63.25 22.47 63.13 22.35C60.43 19.52 57.23 22.91 59.03 25.69C59.1834 25.93 59.39 26.1133 59.65 26.24Z" fill="white"/>
<path d="M72.1001 28.53C70.3667 29.2767 68.9101 29.2667 67.7301 28.5C66.1567 27.48 65.8367 26.2434 66.7701 24.79C67.6101 23.48 69.8601 22.71 71.2601 22.89C73.3267 23.1567 73.5467 22.64 71.9201 21.34C71.3667 20.8934 70.2967 20.9767 68.7101 21.59C68.1101 21.8167 67.5901 21.7 67.1501 21.24L66.8901 20.96C66.8202 20.8857 66.7689 20.7961 66.7401 20.6982C66.7113 20.6004 66.706 20.4972 66.7245 20.397C66.743 20.2967 66.7848 20.2022 66.8466 20.1211C66.9083 20.04 66.9883 19.9745 67.0801 19.93C69.2901 18.88 73.5701 18.15 75.1301 20.64C76.1701 22.33 75.7601 26.3 75.7701 28.39C75.7701 28.7767 75.5834 28.9434 75.2101 28.89L72.3001 28.5C72.2343 28.4935 72.1656 28.5038 72.1001 28.53ZM72.5101 24.63L69.3801 25.03C69.3458 25.0337 69.3127 25.0442 69.2825 25.0609C69.2524 25.0775 69.2258 25.1 69.2044 25.1269C69.183 25.1539 69.1672 25.1849 69.1579 25.218C69.1485 25.2512 69.1459 25.2858 69.1501 25.32L69.2001 25.71C69.2248 25.9045 69.2916 26.0917 69.3965 26.2608C69.5015 26.43 69.6425 26.5778 69.8116 26.6958C69.9807 26.8138 70.1745 26.8996 70.3818 26.9484C70.5892 26.9971 70.8061 27.0079 71.0201 26.98L71.4101 26.93C71.6243 26.903 71.8316 26.8377 72.02 26.738C72.2084 26.6384 72.3743 26.5062 72.5081 26.3492C72.6419 26.1922 72.741 26.0134 72.7996 25.823C72.8583 25.6327 72.8755 25.4346 72.8501 25.24L72.8001 24.85C72.7901 24.7827 72.7542 24.7219 72.7 24.6808C72.6458 24.6397 72.5776 24.6215 72.5101 24.63Z" fill="white"/>
<path d="M93.77 24.74C93.3766 24.74 93.3 24.8933 93.54 25.2L94.28 26.17C94.4372 26.3804 94.6527 26.5399 94.8998 26.6288C95.147 26.7177 95.4148 26.732 95.67 26.67L98.32 26.03C98.4527 25.9969 98.5926 26.0039 98.7223 26.0501C98.8521 26.0963 98.966 26.1797 99.05 26.29L99.58 26.98C99.6287 27.0446 99.6636 27.1186 99.6825 27.1974C99.7014 27.2761 99.7039 27.3579 99.6898 27.4376C99.6757 27.5173 99.6454 27.5933 99.6007 27.6608C99.556 27.7283 99.4979 27.7859 99.43 27.83C96.24 29.84 92.35 29.32 90.72 25.68C87.8 19.15 99.64 15.28 100.64 24.26C100.68 24.5866 100.533 24.75 100.2 24.75L93.77 24.74ZM96.55 21.48C95.49 20.8333 94.4766 21.1533 93.51 22.44C93.4728 22.491 93.4506 22.5515 93.4459 22.6144C93.4411 22.6774 93.454 22.7405 93.4831 22.7965C93.5121 22.8526 93.5562 22.8994 93.6104 22.9319C93.6646 22.9643 93.7268 22.9809 93.79 22.98L97.33 22.94C97.4131 22.9377 97.4945 22.9138 97.5656 22.8707C97.6367 22.8275 97.6951 22.7667 97.7348 22.6945C97.7745 22.6222 97.7941 22.5411 97.7914 22.4595C97.7888 22.3779 97.7642 22.2987 97.72 22.23C97.58 22.0166 97.3833 21.86 97.13 21.76C96.87 21.6533 96.6766 21.56 96.55 21.48Z" fill="white"/>
<path d="M105.88 19.82C107.707 18.4933 109.467 18.6133 111.16 20.18C111.4 20.4 111.643 20.4033 111.89 20.19C113.543 18.8033 115.387 18.6067 117.42 19.6C119.76 20.74 119.04 26.33 118.97 28.31C118.957 28.61 118.8 28.76 118.5 28.76L116.55 28.75C116.25 28.75 116.12 28.6 116.16 28.3C116.447 26.2133 116.33 24.1633 115.81 22.15C115.736 21.8677 115.559 21.6239 115.314 21.4679C115.069 21.312 114.774 21.2555 114.49 21.31L113.85 21.44C113.397 21.5281 112.989 21.7707 112.696 22.1264C112.402 22.4821 112.241 22.9287 112.24 23.39L112.27 28.49C112.27 28.6633 112.183 28.75 112.01 28.75L109.5 28.76C109.465 28.76 109.429 28.7533 109.397 28.7402C109.364 28.7271 109.334 28.708 109.309 28.6838C109.284 28.6597 109.264 28.631 109.251 28.5995C109.237 28.568 109.23 28.5341 109.23 28.5L109.26 22.63C109.261 22.4041 109.206 22.1814 109.101 21.9813C108.996 21.7812 108.844 21.6098 108.658 21.4817C108.472 21.3537 108.257 21.2729 108.033 21.2465C107.808 21.2201 107.581 21.2487 107.37 21.33L106.65 21.61C106.265 21.7585 105.933 22.0175 105.697 22.3541C105.46 22.6906 105.329 23.0895 105.32 23.5L105.23 28.59C105.23 28.67 105.19 28.7133 105.11 28.72L102.75 28.78C102.557 28.7867 102.463 28.6933 102.47 28.5L102.52 19.66C102.52 19.36 102.66 19.1633 102.94 19.07C104.013 18.7233 104.81 18.94 105.33 19.72C105.477 19.9467 105.66 19.98 105.88 19.82Z" fill="white"/>
<path d="M137.052 24.6628C136.964 25.3109 136.741 25.9342 136.395 26.4971C136.049 27.0601 135.588 27.5516 135.036 27.9437C134.485 28.3358 133.854 28.6207 133.181 28.7822C132.508 28.9438 131.805 28.9787 131.113 28.8851C129.715 28.696 128.444 27.9948 127.58 26.9356C126.717 25.8764 126.331 24.5461 126.508 23.2372C126.596 22.5891 126.819 21.9658 127.165 21.4029C127.511 20.8399 127.972 20.3484 128.524 19.9563C129.075 19.5642 129.706 19.2793 130.379 19.1178C131.052 18.9562 131.755 18.9213 132.447 19.0149C133.846 19.204 135.116 19.9052 135.98 20.9644C136.843 22.0236 137.229 23.3539 137.052 24.6628ZM132.812 26.4509C133.112 26.3252 133.383 26.1363 133.608 25.8951C133.833 25.6538 134.009 25.3648 134.125 25.0446C134.24 24.7245 134.294 24.3794 134.282 24.0291C134.271 23.6788 134.195 23.3301 134.058 23.003C133.782 22.3424 133.276 21.8096 132.651 21.522C132.027 21.2343 131.335 21.2153 130.728 21.4691C130.428 21.5948 130.157 21.7836 129.932 22.0249C129.707 22.2662 129.531 22.5552 129.415 22.8754C129.3 23.1955 129.246 23.5406 129.258 23.8909C129.269 24.2412 129.345 24.5899 129.482 24.917C129.758 25.5776 130.264 26.1104 130.889 26.398C131.513 26.6857 132.205 26.7047 132.812 26.4509Z" fill="white"/>
</svg>
