<svg width="135" height="79" viewBox="0 0 135 79" fill="none" xmlns="http://www.w3.org/2000/svg">
<path d="M69.3313 24.3048V0.331299H76.9464V23.8347C76.9464 26.2164 77.4478 26.9059 78.7953 26.9059C80.2369 26.9059 80.6129 26.2478 80.6129 23.8347V0.331299H88.2281V24.3048C88.2281 31.3245 84.6869 34.3016 78.7953 34.3016C72.6531 34.2703 69.3313 31.3245 69.3313 24.3048Z" fill="white"/>
<path d="M99.541 33.7689H92.0513V0.331299H101.484C108.253 0.331299 110.948 3.02636 110.948 8.69851V14.5901C110.948 20.1996 108.253 23.5214 101.484 23.5214H99.541V33.7689ZM99.541 16.8464H101.077C102.549 16.8464 103.302 16.0003 103.302 14.3707V9.01189C103.302 7.445 102.612 6.69289 101.108 6.69289H99.541V16.8464Z" fill="white"/>
<path d="M114.27 33.7689V0.331299H121.101L126.993 16.6897L127.494 18.5386L127.369 15.5302V0.331299H134.263V33.7689H127.588L121.54 17.4105L120.976 15.4989L121.164 18.7893V33.7375H114.27V33.7689Z" fill="white"/>
<path d="M28.4354 0.331357V78.1746H17.0597V21.1397L16.7464 21.4217C11.7323 26.1537 6.15415 30.3217 0.199951 33.8315V20.9517C3.33374 18.758 6.31084 16.345 9.09991 13.7439C13.4245 9.70135 17.3418 5.1887 20.7263 0.299988H28.4354V0.331357Z" fill="white"/>
<path d="M60.9015 20.983V33.8629C54.9159 30.353 49.3691 26.1537 44.3551 21.4531L44.0417 21.171V78.206H32.666V0.331299H40.4065C43.791 5.22001 47.6769 9.73267 52.0328 13.7753C54.7906 16.3763 57.7677 18.7893 60.9015 20.983Z" fill="white"/>
<path d="M70.6787 49.2184V42.8568H72.3083V49.1244C72.3083 50.0018 72.5276 50.3152 73.1231 50.3152C73.7185 50.3152 73.9378 50.0018 73.9378 49.1244V42.8568H75.5361V49.2184C75.5361 51.0673 74.69 51.8821 73.1231 51.8821C71.4935 51.8821 70.6787 51.0673 70.6787 49.2184Z" fill="white"/>
<path d="M76.7583 51.7254V42.8568H78.1685L80.2055 47.8709L80.5188 48.8737L80.4248 47.6828V42.8881H81.8664V51.7568H80.4875L78.3879 46.7114L78.0745 45.6459L78.1685 46.9621V51.7568H76.7583V51.7254Z" fill="white"/>
<path d="M82.9321 50.2212H83.9663V44.3297H82.9321V42.8568H86.536V44.3297H85.5332V50.2212H86.536V51.7254H82.9321V50.2212Z" fill="white"/>
<path d="M87.1941 42.8568H88.8237L89.8892 48.1529L89.9832 49.4691L90.0772 48.1529L91.1113 42.8568H92.7409L90.7979 51.7254H89.1997L87.1941 42.8568Z" fill="white"/>
<path d="M93.5242 51.7254V42.8568H97.6608V44.2984H95.0911V46.492H97.3474V47.9649H95.0911V50.2212H97.7234V51.7254H93.5242Z" fill="white"/>
<path d="M100.293 51.7254H98.7576V42.8568H101.139C102.8 42.8568 103.49 43.5149 103.49 44.9878V46.0533C103.49 46.9307 103.176 47.3695 102.549 47.6202C103.208 47.8395 103.396 48.2783 103.396 49.1557V51.1614C103.396 51.4121 103.49 51.6001 103.646 51.7568H101.985C101.86 51.6628 101.829 51.4434 101.829 51.1614V49.2497C101.829 48.623 101.641 48.3723 100.983 48.3723H100.324V51.7254H100.293ZM100.293 46.9307H101.045C101.672 46.9307 101.923 46.6487 101.923 46.0533V45.0505C101.923 44.455 101.672 44.2043 101.045 44.2043H100.293V46.9307Z" fill="white"/>
<path d="M104.398 49.5631V48.3723H106.059V49.5318C106.059 50.0959 106.247 50.4406 106.905 50.4406C107.501 50.4406 107.689 50.0959 107.689 49.5945V49.1244C107.689 48.8737 107.626 48.6857 107.501 48.4977C107.25 48.1529 106.78 47.9022 106.279 47.6829C105.997 47.5262 105.715 47.3695 105.464 47.1815C104.931 46.8054 104.524 46.2413 104.524 45.3325V44.9565C104.524 43.5776 105.276 42.7628 106.874 42.7628C108.472 42.7628 109.193 43.5463 109.193 44.8311V45.8026H107.626V44.9251C107.626 44.3297 107.407 44.079 106.874 44.079C106.341 44.079 106.122 44.4237 106.122 44.9565V45.2072C106.122 45.4579 106.185 45.6146 106.31 45.7713C106.561 46.0846 107.031 46.304 107.501 46.5547C107.783 46.7114 108.065 46.8681 108.347 47.0561C108.88 47.4322 109.287 47.9962 109.287 48.9364V49.6258C109.287 51.036 108.472 51.8821 106.874 51.8821C105.025 51.8821 104.398 51.0674 104.398 49.5631Z" fill="white"/>
<path d="M110.039 50.2212H111.073V44.3297H110.039V42.8568H113.643V44.3297H112.64V50.2212H113.643V51.7254H110.039V50.2212Z" fill="white"/>
<path d="M116.965 42.8568C117.498 42.8568 117.936 42.9508 118.344 43.1389C119.127 43.4836 119.629 44.2357 119.629 45.5205V49.093C119.629 49.7198 119.503 50.2212 119.284 50.5973C118.845 51.3807 117.999 51.7254 116.965 51.7254H114.677V42.8568H116.965ZM116.275 50.3152H116.902C117.592 50.3152 117.968 49.9078 117.968 48.9364V45.5832C117.968 44.6117 117.56 44.2043 116.871 44.2043H116.275V50.3152Z" fill="white"/>
<path d="M121.979 50.4092L121.728 51.7254H120.13L122.104 42.8568H123.702L125.708 51.7254H124.11L123.859 50.4092H121.979ZM123.577 49.0304L122.982 46.0846L122.888 44.8311L122.794 46.0846L122.23 49.0304H123.577Z" fill="white"/>
<path d="M128.779 42.8568C129.312 42.8568 129.751 42.9508 130.158 43.1389C130.941 43.4836 131.443 44.2357 131.443 45.5205V49.093C131.443 49.7198 131.317 50.2212 131.098 50.5973C130.659 51.3807 129.813 51.7254 128.779 51.7254H126.491V42.8568H128.779ZM128.09 50.3152H128.716C129.406 50.3152 129.782 49.9078 129.782 48.9364V45.5832C129.782 44.6117 129.375 44.2043 128.685 44.2043H128.09V50.3152Z" fill="white"/>
<path d="M72.3086 64.95H70.7417V56.0814H73.092C74.8156 56.0814 75.5677 56.7395 75.5677 58.3377V59.842C75.5677 61.3148 74.847 62.1923 73.1234 62.1923H72.3399V64.95H72.3086ZM72.3086 60.7508H73.0294C73.6561 60.7508 73.9695 60.4061 73.9695 59.7793V58.3691C73.9695 57.6797 73.6875 57.429 73.0294 57.429H72.3086V60.7508Z" fill="white"/>
<path d="M78.1059 64.95H76.5703V56.0814H78.952C80.6129 56.0814 81.3023 56.7395 81.3023 58.2124V59.2779C81.3023 60.1553 80.989 60.5941 80.3622 60.8448C81.0203 61.0641 81.2083 61.5029 81.2083 62.3803V64.386C81.2083 64.6367 81.3023 64.8247 81.459 64.9814H79.7668C79.6414 64.8874 79.6101 64.668 79.6101 64.386V62.4744C79.6101 61.8476 79.4221 61.5969 78.764 61.5969H78.1059V64.95ZM78.1059 60.124H78.858C79.4847 60.124 79.7354 59.842 79.7354 59.2465V58.2437C79.7354 57.6483 79.4847 57.3976 78.858 57.3976H78.1059V60.124Z" fill="white"/>
<path d="M82.1798 63.4458H83.2139V57.5543H82.1798V56.0814H85.7836V57.5543H84.7495V63.4458H85.7523V64.95H82.1484V63.4458H82.1798Z" fill="white"/>
<path d="M86.4417 56.0501H88.0712L89.1367 61.3462L89.2307 62.6624L89.3247 61.3462L90.3589 56.0501H91.9885L90.0455 64.9187H88.4473L86.4417 56.0501Z" fill="white"/>
<path d="M93.3987 63.6338L93.148 64.95H91.5498L93.5241 56.0814H95.1223L97.1279 64.95H95.5297L95.279 63.6338H93.3987ZM95.0283 62.2236L94.4329 59.2779L94.3389 58.0244L94.2449 59.2779L93.6808 62.2236H95.0283Z" fill="white"/>
<path d="M100.231 56.0501C100.763 56.0501 101.202 56.1441 101.609 56.3322C102.393 56.6769 102.894 57.429 102.894 58.7138V62.3177C102.894 62.9445 102.769 63.4459 102.55 63.8219C102.111 64.6054 101.265 64.9501 100.231 64.9501H97.9429V56.0814H100.231V56.0501ZM99.5411 63.5399H100.168C100.857 63.5399 101.233 63.1325 101.233 62.161V58.8078C101.233 57.8364 100.826 57.429 100.137 57.429H99.5411V63.5399Z" fill="white"/>
<path d="M105.213 63.6338L104.962 64.95H103.364L105.339 56.0814H106.937L108.942 64.95H107.344L107.093 63.6338H105.213ZM106.843 62.2236L106.247 59.2779L106.153 58.0244L106.059 59.2779L105.495 62.2236H106.843Z" fill="white"/>
<path d="M73.0294 69.2747C73.5621 69.2747 74.0008 69.3687 74.4082 69.5568C75.1917 69.9015 75.6931 70.6536 75.6931 71.9384V75.5423C75.6931 76.1691 75.5677 76.6705 75.3484 77.0465C74.9096 77.83 74.0635 78.1747 73.0294 78.1747H70.7417V69.3061H73.0294V69.2747ZM72.3399 76.7331H72.9667C73.6561 76.7331 74.0322 76.3257 74.0322 75.3543V72.0011C74.0322 71.0296 73.6248 70.6223 72.9354 70.6223H72.3399V76.7331Z" fill="white"/>
<path d="M76.8525 78.1433V69.2747H80.9891V70.7163H78.4194V72.9099H80.6758V74.3828H78.4194V76.6391H81.0518V78.1433H76.8525Z" fill="white"/>
<path d="M82.0859 69.2747H83.7155V76.5451H86.0972V78.1433H82.0859V69.2747Z" fill="white"/>
<path d="M89.7637 78.1433V69.2747H91.1739L93.2108 74.2888L93.5242 75.2916L93.4302 74.1008V69.3061H94.8717V78.1747H93.4929L91.3932 73.1293L91.0799 72.0638L91.1739 73.38V78.1747H89.7637V78.1433Z" fill="white"/>
<path d="M96.0625 75.6049V71.8757C96.0625 70.0581 97.0653 69.1807 98.6322 69.1807C100.199 69.1807 101.202 70.0581 101.202 71.8757V75.6049C101.202 77.4539 100.199 78.3 98.6322 78.3C97.0026 78.3 96.0625 77.4539 96.0625 75.6049ZM99.5097 75.4796V71.9384C99.5097 70.9983 99.259 70.5909 98.6009 70.5909C97.9428 70.5909 97.6921 71.0296 97.6921 71.9384V75.4796C97.6921 76.3884 97.9428 76.8271 98.6009 76.8271C99.259 76.7958 99.5097 76.3884 99.5097 75.4796Z" fill="white"/>
<path d="M103.866 78.1433H102.33V69.2747H104.712C106.373 69.2747 107.062 69.9328 107.062 71.4057V72.4712C107.062 73.3486 106.749 73.7874 106.122 74.0381C106.78 74.2574 106.968 74.6962 106.968 75.5736V77.5793C106.968 77.83 107.062 78.018 107.219 78.1747H105.527C105.401 78.0807 105.37 77.8613 105.37 77.5793V75.6676C105.37 75.0409 105.182 74.7902 104.524 74.7902H103.866V78.1433ZM103.866 73.3486H104.618C105.245 73.3486 105.495 73.0666 105.495 72.4712V71.4684C105.495 70.873 105.245 70.6223 104.618 70.6223H103.866V73.3486Z" fill="white"/>
<path d="M110.823 78.1433H109.225V70.7162H107.752V69.2433H112.296V70.7162H110.823V78.1433Z" fill="white"/>
<path d="M113.205 78.1433V69.2747H117.341V70.7163H114.771V72.9099H117.028V74.3828H114.771V76.6391H117.404V78.1433H113.205Z" fill="white"/>
</svg>
